Bodoni-72-Bold.ufo
<glyph name="exclam" format="2">
  <advance width="1546"/>
  <unicode hex="0021"/>
  <outline>
    <contour>
      <point x="1133" y="2618" type="curve" smooth="yes"/>
      <point x="1087" y="2020"/>
      <point x="776" y="1569"/>
      <point x="776" y="1057" type="curve"/>
      <point x="763" y="1057" type="line"/>
      <point x="763" y="1569"/>
      <point x="451" y="2020"/>
      <point x="405" y="2618" type="curve" smooth="yes"/>
      <point x="403" y="2646"/>
      <point x="405" y="2672"/>
      <point x="405" y="2696" type="curve" smooth="yes"/>
      <point x="405" y="2925"/>
      <point x="516" y="3104"/>
      <point x="770" y="3104" type="curve" smooth="yes"/>
      <point x="1024" y="3104"/>
      <point x="1138" y="2925"/>
      <point x="1138" y="2696" type="curve" smooth="yes"/>
      <point x="1138" y="2672"/>
      <point x="1135" y="2646"/>
    </contour>
    <component base="period" xOffset="241"/>
  </outline>
</glyph>
<glyph name="numbersign" format="2">
  <advance width="630"/>
  <unicode hex="0023"/>
  <outline>
    <contour>
      <point x="30" y="251" type="line"/>
      <point x="570" y="251" type="line"/>
      <point x="570" y="248" type="line"/>
      <point x="30" y="248" type="line"/>
    </contour>
    <contour>
      <point x="60" y="517" type="line"/>
      <point x="600" y="517" type="line"/>
      <point x="600" y="514" type="line"/>
      <point x="60" y="514" type="line"/>
    </contour>
    <contour>
      <point x="453" y="754" type="line"/>
      <point x="456" y="755" type="line"/>
      <point x="356" y="-5" type="line"/>
      <point x="353" y="-6" type="line"/>
    </contour>
    <contour>
      <point x="264" y="755" type="line"/>
      <point x="267" y="755" type="line"/>
      <point x="167" y="-5" type="line"/>
      <point x="164" y="-5" type="line"/>
    </contour>
  </outline>
</glyph>
<glyph name="dollar" format="2">
  <advance width="2436"/>
  <unicode hex="0024"/>
  <outline>
    <contour>
      <point x="1317" y="3400" type="line"/>
      <point x="1329" y="3400" type="line"/>
      <point x="1329" y="-328" type="line"/>
      <point x="1317" y="-328" type="line"/>
    </contour>
    <contour>
      <point x="995" y="3400" type="line"/>
      <point x="1007" y="3400" type="line"/>
      <point x="1007" y="-328" type="line"/>
      <point x="995" y="-328" type="line"/>
    </contour>
    <contour>
      <point x="2128" y="2556" type="curve"/>
      <point x="2069" y="2870"/>
      <point x="1681" y="3094"/>
      <point x="1276" y="3094" type="curve" smooth="yes"/>
      <point x="924" y="3094"/>
      <point x="655" y="2883"/>
      <point x="655" y="2580" type="curve" smooth="yes"/>
      <point x="655" y="1845"/>
      <point x="2274" y="2068"/>
      <point x="2274" y="901" type="curve" smooth="yes"/>
      <point x="2274" y="327"/>
      <point x="1847" y="-62"/>
      <point x="1208" y="-62" type="curve" smooth="yes"/>
      <point x="447" y="-62"/>
      <point x="112" y="328"/>
      <point x="112" y="635" type="curve" smooth="yes"/>
      <point x="112" y="864"/>
      <point x="250" y="1032"/>
      <point x="471" y="1032" type="curve" smooth="yes"/>
      <point x="634" y="1032"/>
      <point x="795" y="901"/>
      <point x="795" y="680" type="curve" smooth="yes"/>
      <point x="795" y="475"/>
      <point x="613" y="373"/>
      <point x="453" y="373" type="curve" smooth="yes"/>
      <point x="304" y="373"/>
      <point x="180" y="462"/>
      <point x="129" y="577" type="curve"/>
      <point x="163" y="309"/>
      <point x="492" y="-45"/>
      <point x="1188" y="-45" type="curve" smooth="yes"/>
      <point x="1622" y="-45"/>
      <point x="1843" y="209"/>
      <point x="1843" y="574" type="curve" smooth="yes"/>
      <point x="1843" y="1391"/>
      <point x="225" y="1086"/>
      <point x="225" y="2273" type="curve" smooth="yes"/>
      <point x="225" y="2785"/>
      <point x="741" y="3112"/>
      <point x="1237" y="3112" type="curve" smooth="yes"/>
      <point x="1721" y="3112"/>
      <point x="2151" y="2851"/>
      <point x="2151" y="2478" type="curve" smooth="yes"/>
      <point x="2151" y="2249"/>
      <point x="2023" y="2101"/>
      <point x="1802" y="2101" type="curve" smooth="yes"/>
      <point x="1639" y="2101"/>
      <point x="1478" y="2208"/>
      <point x="1478" y="2423" type="curve" smooth="yes"/>
      <point x="1478" y="2622"/>
      <point x="1645" y="2740"/>
      <point x="1805" y="2740" type="curve" smooth="yes"/>
      <point x="1948" y="2740"/>
      <point x="2069" y="2667"/>
    </contour>
  </outline>
</glyph>
<glyph name="percent" format="2">
  <advance width="4136"/>
  <unicode hex="0025"/>
  <outline>
    <contour>
      <point x="2815.5" y="860" type="curve" smooth="yes"/>
      <point x="2815.5" y="371.5"/>
      <point x="2881.5" y="-28"/>
      <point x="3134" y="-28" type="curve" smooth="yes"/>
      <point x="3386.5" y="-28"/>
      <point x="3451" y="371.5"/>
      <point x="3451" y="860" type="curve" smooth="yes"/>
      <point x="3451" y="1348.5"/>
      <point x="3386.5" y="1748"/>
      <point x="3134" y="1748" type="curve" smooth="yes"/>
      <point x="2881.5" y="1748"/>
      <point x="2815.5" y="1348.5"/>
    </contour>
    <contour>
      <point x="2273" y="860" type="curve" smooth="yes"/>
      <point x="2273" y="1446"/>
      <point x="2672" y="1762"/>
      <point x="3134" y="1762" type="curve" smooth="yes"/>
      <point x="3596" y="1762"/>
      <point x="3993" y="1446"/>
      <point x="3993" y="860" type="curve" smooth="yes"/>
      <point x="3993" y="274"/>
      <point x="3514" y="-40"/>
      <point x="3134" y="-40" type="curve" smooth="yes"/>
      <point x="2672" y="-40"/>
      <point x="2273" y="274"/>
    </contour>
    <contour>
      <point x="3139.5" y="3072" type="line"/>
      <point x="3154.5" y="3072" type="line"/>
      <point x="997.5" y="0" type="line"/>
      <point x="982.5" y="0" type="line"/>
    </contour>
    <contour>
      <point x="686" y="2212" type="curve" smooth="yes"/>
      <point x="686" y="1723.5"/>
      <point x="750.5" y="1324"/>
      <point x="1003" y="1324" type="curve" smooth="yes"/>
      <point x="1255.5" y="1324"/>
      <point x="1321.5" y="1723.5"/>
      <point x="1321.5" y="2212" type="curve" smooth="yes"/>
      <point x="1321.5" y="2700.5"/>
      <point x="1255.5" y="3100"/>
      <point x="1003" y="3100" type="curve" smooth="yes"/>
      <point x="750.5" y="3100"/>
      <point x="686" y="2700.5"/>
    </contour>
    <contour>
      <point x="144" y="2212" type="curve" smooth="yes"/>
      <point x="144" y="2798"/>
      <point x="541" y="3112"/>
      <point x="1003" y="3112" type="curve" smooth="yes"/>
      <point x="1465" y="3112"/>
      <point x="1864" y="2798"/>
      <point x="1864" y="2212" type="curve" smooth="yes"/>
      <point x="1864" y="1626"/>
      <point x="1383" y="1310"/>
      <point x="1003" y="1310" type="curve" smooth="yes"/>
      <point x="541" y="1310"/>
      <point x="144" y="1626"/>
    </contour>
  </outline>
</glyph>
<glyph name="ampersand" format="2">
  <advance width="3528"/>
  <unicode hex="0026"/>
  <outline>
    <contour>
      <point x="1644" y="1923" type="curve"/>
      <point x="1640" y="1928" type="line"/>
      <point x="1756" y="2007"/>
      <point x="1908" y="2145"/>
      <point x="1908" y="2611" type="curve" smooth="yes"/>
      <point x="1908" y="2843"/>
      <point x="1854" y="3100"/>
      <point x="1624" y="3100" type="curve" smooth="yes"/>
      <point x="1400" y="3100"/>
      <point x="1316" y="2878"/>
      <point x="1316" y="2682" type="curve" smooth="yes"/>
      <point x="1316" y="2518"/>
      <point x="1438" y="2270"/>
      <point x="1614" y="2008" type="curve" smooth="yes"/>
      <point x="2914" y="13" type="line"/>
      <point x="3416" y="13" type="line"/>
      <point x="3416" y="0" type="line"/>
      <point x="2212" y="0" type="line"/>
      <point x="856" y="2008" type="line" smooth="yes"/>
      <point x="750" y="2164"/>
      <point x="668" y="2366"/>
      <point x="668" y="2510" type="curve" smooth="yes"/>
      <point x="668" y="2878"/>
      <point x="1056" y="3112"/>
      <point x="1634" y="3112" type="curve" smooth="yes"/>
      <point x="2175" y="3112"/>
      <point x="2524" y="2917"/>
      <point x="2524" y="2610" type="curve" smooth="yes"/>
      <point x="2524" y="2230"/>
      <point x="2108" y="2091"/>
    </contour>
    <contour>
      <point x="1108" y="1689" type="curve"/>
      <point x="1112" y="1682" type="line"/>
      <point x="916" y="1574"/>
      <point x="814" y="1377"/>
      <point x="814" y="1046" type="curve" smooth="yes"/>
      <point x="814" y="566"/>
      <point x="1062" y="66"/>
      <point x="1512" y="66" type="curve" smooth="yes"/>
      <point x="2222" y="66"/>
      <point x="2850" y="953"/>
      <point x="2930" y="1883" type="curve"/>
      <point x="2944" y="1883" type="line"/>
      <point x="2859" y="970"/>
      <point x="2261" y="-40"/>
      <point x="1163" y="-40" type="curve" smooth="yes"/>
      <point x="515" y="-40"/>
      <point x="159" y="274"/>
      <point x="159" y="722" type="curve" smooth="yes"/>
      <point x="159" y="1365"/>
      <point x="932" y="1607"/>
    </contour>
    <contour>
      <point x="2392" y="1884" type="line"/>
      <point x="3374" y="1884" type="line"/>
      <point x="3374" y="1871" type="line"/>
      <point x="2392" y="1871" type="line"/>
    </contour>
  </outline>
</glyph>
<glyph name="parenleft" format="2">
  <advance width="1523"/>
  <unicode hex="0028"/>
  <outline>
    <contour>
      <point x="1452" y="-687" type="curve"/>
      <point x="1445" y="-696" type="line"/>
      <point x="777" y="-410"/>
      <point x="266" y="378"/>
      <point x="266" y="1332" type="curve" smooth="yes"/>
      <point x="266" y="2286"/>
      <point x="777" y="2990"/>
      <point x="1445" y="3276" type="curve"/>
      <point x="1452" y="3267" type="line"/>
      <point x="1046" y="3001"/>
      <point x="901" y="2118"/>
      <point x="901" y="1332" type="curve" smooth="yes"/>
      <point x="901" y="546"/>
      <point x="1046" y="-421"/>
    </contour>
  </outline>
</glyph>
<glyph name="comma" format="2">
  <advance width="1126"/>
  <unicode hex="002C"/>
  <outline>
    <contour>
      <point x="164" y="323" type="curve" smooth="yes"/>
      <point x="164" y="520"/>
      <point x="344" y="688"/>
      <point x="561" y="688" type="curve" smooth="yes"/>
      <point x="782" y="688"/>
      <point x="970" y="500"/>
      <point x="970" y="139" type="curve" smooth="yes"/>
      <point x="970" y="-270"/>
      <point x="647" y="-620"/>
      <point x="156" y="-620" type="curve"/>
      <point x="156" y="-608" type="line"/>
      <point x="644" y="-608"/>
      <point x="1058" y="-228"/>
      <point x="932" y="346" type="curve"/>
      <point x="915" y="156"/>
      <point x="766" y="-40"/>
      <point x="538" y="-40" type="curve" smooth="yes"/>
      <point x="302" y="-40"/>
      <point x="164" y="126"/>
    </contour>
  </outline>
</glyph>
<glyph name="hyphen" format="2">
  <advance width="1474"/>
  <unicode hex="002D"/>
  <outline>
    <contour>
      <point x="246" y="1133" type="line"/>
      <point x="1228" y="1133" type="line"/>
      <point x="1228" y="1119" type="line"/>
      <point x="246" y="1119" type="line"/>
    </contour>
  </outline>
</glyph>
<glyph name="period" format="2">
  <advance width="1064"/>
  <unicode hex="002E"/>
  <outline>
    <contour>
      <point x="164" y="327" type="curve" smooth="yes"/>
      <point x="164" y="530"/>
      <point x="330" y="696"/>
      <point x="533" y="696" type="curve" smooth="yes"/>
      <point x="736" y="696"/>
      <point x="901" y="530"/>
      <point x="901" y="327" type="curve" smooth="yes"/>
      <point x="901" y="124"/>
      <point x="736" y="-40"/>
      <point x="533" y="-40" type="curve" smooth="yes"/>
      <point x="330" y="-40"/>
      <point x="164" y="124"/>
    </contour>
  </outline>
</glyph>
<glyph name="slash" format="2">
  <advance width="2128"/>
  <unicode hex="002F"/>
  <outline>
    <contour>
      <point x="1954" y="3194" type="line"/>
      <point x="1967" y="3194" type="line"/>
      <point x="177" y="-614" type="line"/>
      <point x="164" y="-614" type="line"/>
    </contour>
  </outline>
</glyph>
<glyph name="zero" format="2">
  <advance width="5280"/>
  <unicode hex="0030"/>
  <outline>
    <contour>
      <point x="2640" y="-80" type="curve" smooth="yes"/>
      <point x="1256" y="-80"/>
      <point x="320" y="1256"/>
      <point x="320" y="3000" type="curve" smooth="yes"/>
      <point x="320" y="4744"/>
      <point x="1336" y="6080"/>
      <point x="2640" y="6080" type="curve" smooth="yes"/>
      <point x="3944" y="6080"/>
      <point x="4960" y="4744"/>
      <point x="4960" y="3000" type="curve" smooth="yes"/>
      <point x="4960" y="1256"/>
      <point x="4024" y="-80"/>
    </contour>
    <contour>
      <point x="2640" y="6056" type="curve" smooth="yes"/>
      <point x="1888" y="6056"/>
      <point x="1720" y="4656"/>
      <point x="1720" y="3000" type="curve" smooth="yes"/>
      <point x="1720" y="1344"/>
      <point x="1808" y="-56"/>
      <point x="2640" y="-56" type="curve" smooth="yes"/>
      <point x="3472" y="-56"/>
      <point x="3560" y="1344"/>
      <point x="3560" y="3000" type="curve" smooth="yes"/>
      <point x="3560" y="4656"/>
      <point x="3432" y="6056"/>
    </contour>
  </outline>
</glyph>
<glyph name="two" format="2">
  <advance width="2354"/>
  <unicode hex="0032"/>
  <outline>
    <contour>
      <point x="2212.5" y="0" type="line"/>
      <point x="164" y="0" type="line"/>
      <point x="164" y="337.5" type="line"/>
      <point x="1051" y="1125" type="line" smooth="yes"/>
      <point x="1417" y="1451.5"/>
      <point x="1593.5" y="1794.5"/>
      <point x="1593.5" y="2211" type="curve" smooth="yes"/>
      <point x="1593.5" y="2697.5"/>
      <point x="1407.5" y="3060.5"/>
      <point x="996" y="3060.5" type="curve" smooth="yes"/>
      <point x="560" y="3060.5"/>
      <point x="204.5" y="2694.5"/>
      <point x="225.5" y="2213" type="curve"/>
      <point x="263" y="2338"/>
      <point x="369.5" y="2445.5"/>
      <point x="539" y="2445.5" type="curve" smooth="yes"/>
      <point x="708.5" y="2445.5"/>
      <point x="852.5" y="2328.5"/>
      <point x="852.5" y="2154" type="curve" smooth="yes"/>
      <point x="852.5" y="1959.5"/>
      <point x="697.5" y="1836"/>
      <point x="523" y="1836" type="curve" smooth="yes"/>
      <point x="348.5" y="1836"/>
      <point x="206" y="1963.5"/>
      <point x="206" y="2248" type="curve" smooth="yes"/>
      <point x="206" y="2728"/>
      <point x="555" y="3112"/>
      <point x="1177.5" y="3112" type="curve" smooth="yes"/>
      <point x="1786" y="3112"/>
      <point x="2126.5" y="2754"/>
      <point x="2126.5" y="2334" type="curve" smooth="yes"/>
      <point x="2126.5" y="1893.5"/>
      <point x="1705" y="1670.5"/>
      <point x="1442" y="1447.5" type="curve" smooth="yes"/>
      <point x="384.5" y="491" type="line"/>
      <point x="2200" y="491" type="line"/>
      <point x="2200" y="799" type="line"/>
      <point x="2212.5" y="799" type="line"/>
    </contour>
  </outline>
</glyph>
<glyph name="three" format="2">
  <advance width="4568"/>
  <unicode hex="0033"/>
  <outline>
    <contour>
      <point x="4248" y="1640" type="curve" smooth="yes"/>
      <point x="4248" y="560"/>
      <point x="3256" y="-80"/>
      <point x="2048" y="-80" type="curve" smooth="yes"/>
      <point x="792" y="-80"/>
      <point x="200" y="632"/>
      <point x="200" y="1288" type="curve" smooth="yes"/>
      <point x="200" y="1736"/>
      <point x="496" y="2032"/>
      <point x="896" y="2032" type="curve" smooth="yes"/>
      <point x="1256" y="2032"/>
      <point x="1536" y="1768"/>
      <point x="1536" y="1360" type="curve" smooth="yes"/>
      <point x="1536" y="984"/>
      <point x="1208" y="720"/>
      <point x="856" y="720" type="curve" smooth="yes"/>
      <point x="568" y="720"/>
      <point x="384" y="848"/>
      <point x="272" y="1048" type="curve"/>
      <point x="352" y="544"/>
      <point x="912" y="-16"/>
      <point x="1888" y="-16" type="curve" smooth="yes"/>
      <point x="2760" y="-16"/>
      <point x="2960" y="768"/>
      <point x="2960" y="1640" type="curve" smooth="yes"/>
      <point x="2960" y="2352"/>
      <point x="2736" y="3232"/>
      <point x="1584" y="3232" type="curve"/>
      <point x="1584" y="3248" type="line"/>
      <point x="3592" y="3248"/>
      <point x="4248" y="2560"/>
    </contour>
    <contour>
      <point x="1584" y="3232" type="curve"/>
      <point x="1584" y="3248" type="line"/>
      <point x="2656" y="3248"/>
      <point x="2720" y="4176"/>
      <point x="2720" y="4728" type="curve" smooth="yes"/>
      <point x="2720" y="5360"/>
      <point x="2520" y="6024"/>
      <point x="1968" y="6024" type="curve" smooth="yes"/>
      <point x="1368" y="6024"/>
      <point x="720" y="5640"/>
      <point x="560" y="5176" type="curve"/>
      <point x="704" y="5384"/>
      <point x="928" y="5472"/>
      <point x="1136" y="5472" type="curve" smooth="yes"/>
      <point x="1448" y="5472"/>
      <point x="1752" y="5232"/>
      <point x="1752" y="4848" type="curve" smooth="yes"/>
      <point x="1752" y="4432"/>
      <point x="1416" y="4184"/>
      <point x="1096" y="4184" type="curve" smooth="yes"/>
      <point x="736" y="4184"/>
      <point x="440" y="4408"/>
      <point x="440" y="4840" type="curve" smooth="yes"/>
      <point x="440" y="5536"/>
      <point x="1272" y="6072"/>
      <point x="2088" y="6072" type="curve" smooth="yes"/>
      <point x="3136" y="6072"/>
      <point x="4008" y="5568"/>
      <point x="4008" y="4688" type="curve" smooth="yes"/>
      <point x="4008" y="3888"/>
      <point x="3512" y="3232"/>
    </contour>
  </outline>
</glyph>
<glyph name="four" format="2">
  <advance width="2620"/>
  <unicode hex="0034"/>
  <outline>
    <contour>
      <point x="2437" y="13" type="line"/>
      <point x="2437" y="0" type="line"/>
      <point x="1106" y="0" type="line"/>
      <point x="1106" y="13" type="line"/>
      <point x="1495" y="13" type="line"/>
      <point x="1495" y="2814" type="line"/>
      <point x="168" y="887" type="line"/>
      <point x="2580" y="887" type="line"/>
      <point x="2580" y="873" type="line"/>
      <point x="144" y="873" type="line"/>
      <point x="1659" y="3072" type="line"/>
      <point x="2130" y="3072" type="line"/>
      <point x="2130" y="13" type="line"/>
    </contour>
  </outline>
</glyph>
<glyph name="five" format="2">
  <advance width="2191"/>
  <unicode hex="0035"/>
  <outline>
    <contour>
      <point x="1925" y="2458" type="line"/>
      <point x="245" y="2458" type="line"/>
      <point x="245" y="1462" type="line"/>
      <point x="233" y="1462" type="line"/>
      <point x="233" y="3072" type="line"/>
      <point x="1913" y="3072" type="line"/>
      <point x="1913" y="3298" type="line"/>
      <point x="1925" y="3298" type="line"/>
    </contour>
    <contour>
      <point x="86" y="419" type="curve"/>
      <point x="150" y="186"/>
      <point x="463" y="-16"/>
      <point x="803" y="-16" type="curve" smooth="yes"/>
      <point x="1249" y="-16"/>
      <point x="1393" y="444"/>
      <point x="1393" y="911" type="curve" smooth="yes"/>
      <point x="1393" y="1459"/>
      <point x="1247" y="1829"/>
      <point x="903" y="1829" type="curve" smooth="yes"/>
      <point x="592" y="1829"/>
      <point x="333" y="1643"/>
      <point x="249" y="1462" type="curve"/>
      <point x="237" y="1462" type="line"/>
      <point x="323" y="1655"/>
      <point x="598" y="1864"/>
      <point x="1032" y="1864" type="curve" smooth="yes"/>
      <point x="1650" y="1864"/>
      <point x="2069" y="1525"/>
      <point x="2069" y="911" type="curve" smooth="yes"/>
      <point x="2069" y="358"/>
      <point x="1564" y="-40"/>
      <point x="884" y="-40" type="curve" smooth="yes"/>
      <point x="446" y="-40"/>
      <point x="41" y="193"/>
      <point x="41" y="569" type="curve" smooth="yes"/>
      <point x="41" y="798"/>
      <point x="203" y="946"/>
      <point x="397" y="946" type="curve" smooth="yes"/>
      <point x="581" y="946"/>
      <point x="754" y="829"/>
      <point x="754" y="604" type="curve" smooth="yes"/>
      <point x="754" y="399"/>
      <point x="577" y="246"/>
      <point x="377" y="246" type="curve" smooth="yes"/>
      <point x="244" y="246"/>
      <point x="137" y="327"/>
    </contour>
  </outline>
</glyph>
<glyph name="six" format="2">
  <advance width="2497"/>
  <unicode hex="0036"/>
  <outline>
    <contour>
      <point x="1700" y="1024" type="curve" smooth="yes"/>
      <point x="1700" y="1675"/>
      <point x="1556" y="1964"/>
      <point x="1294" y="1964" type="curve" smooth="yes"/>
      <point x="979" y="1964"/>
      <point x="880" y="1678"/>
      <point x="880" y="1146" type="curve"/>
      <point x="868" y="1146" type="line"/>
      <point x="868" y="1684"/>
      <point x="945" y="2018"/>
      <point x="1417" y="2018" type="curve" smooth="yes"/>
      <point x="1872" y="2018"/>
      <point x="2375" y="1720"/>
      <point x="2375" y="1024" type="curve" smooth="yes"/>
      <point x="2375" y="410"/>
      <point x="1966" y="-40"/>
      <point x="1307" y="-40" type="curve" smooth="yes"/>
      <point x="648" y="-40"/>
      <point x="204" y="410"/>
      <point x="204" y="1270" type="curve" smooth="yes"/>
      <point x="204" y="2266"/>
      <point x="991" y="3112"/>
      <point x="2069" y="3112" type="curve"/>
      <point x="2069" y="3100" type="line"/>
      <point x="1336" y="3100"/>
      <point x="880" y="2268"/>
      <point x="880" y="1368" type="curve"/>
      <point x="880" y="1146" type="line"/>
      <point x="880" y="495"/>
      <point x="996" y="-27"/>
      <point x="1319" y="-27" type="curve" smooth="yes"/>
      <point x="1642" y="-27"/>
      <point x="1700" y="455"/>
    </contour>
  </outline>
</glyph>
<glyph name="seven" format="2">
  <advance width="540"/>
  <unicode hex="0037"/>
  <outline>
    <contour>
      <point x="148" y="91" type="curve" smooth="yes"/>
      <point x="148" y="170"/>
      <point x="248" y="264"/>
      <point x="314" y="373" type="curve" smooth="yes"/>
      <point x="348" y="431"/>
      <point x="389" y="508"/>
      <point x="437" y="595" type="curve"/>
      <point x="43" y="595" type="line"/>
      <point x="43" y="520" type="line"/>
      <point x="40" y="520" type="line"/>
      <point x="40" y="750" type="line"/>
      <point x="530" y="750" type="line"/>
      <point x="530" y="750"/>
      <point x="400" y="509"/>
      <point x="322" y="377" type="curve" smooth="yes"/>
      <point x="272" y="292"/>
      <point x="253" y="271"/>
      <point x="253" y="237" type="curve" smooth="yes"/>
      <point x="253" y="174"/>
      <point x="338" y="159"/>
      <point x="338" y="83" type="curve" smooth="yes"/>
      <point x="338" y="31"/>
      <point x="303" y="-10"/>
      <point x="244" y="-10" type="curve" smooth="yes"/>
      <point x="190" y="-10"/>
      <point x="148" y="22"/>
    </contour>
  </outline>
</glyph>
<glyph name="eight" format="2">
  <advance width="2354"/>
  <unicode hex="0038"/>
  <outline>
    <contour>
      <point x="778.5" y="2294" type="curve" smooth="yes"/>
      <point x="778.5" y="1899"/>
      <point x="875" y="1594"/>
      <point x="1177.5" y="1594" type="curve" smooth="yes"/>
      <point x="1480" y="1594"/>
      <point x="1577.5" y="1899"/>
      <point x="1577.5" y="2294" type="curve" smooth="yes"/>
      <point x="1577.5" y="2679"/>
      <point x="1480" y="3083"/>
      <point x="1177.5" y="3083" type="curve" smooth="yes"/>
      <point x="875" y="3083"/>
      <point x="778.5" y="2679"/>
    </contour>
    <contour>
      <point x="246" y="2294" type="curve" smooth="yes"/>
      <point x="246" y="2744"/>
      <point x="569" y="3112"/>
      <point x="1177.5" y="3112" type="curve" smooth="yes"/>
      <point x="1786" y="3112"/>
      <point x="2110" y="2744"/>
      <point x="2110" y="2294" type="curve" smooth="yes"/>
      <point x="2110" y="1844"/>
      <point x="1786" y="1571"/>
      <point x="1177.5" y="1571" type="curve" smooth="yes"/>
      <point x="569" y="1571"/>
      <point x="246" y="1844"/>
    </contour>
    <contour>
      <point x="696.5" y="778" type="curve" smooth="yes"/>
      <point x="696.5" y="372"/>
      <point x="823" y="-11"/>
      <point x="1177.5" y="-11" type="curve" smooth="yes"/>
      <point x="1532" y="-11"/>
      <point x="1659.5" y="372"/>
      <point x="1659.5" y="778" type="curve" smooth="yes"/>
      <point x="1659.5" y="1184"/>
      <point x="1532" y="1563"/>
      <point x="1177.5" y="1563" type="curve" smooth="yes"/>
      <point x="823" y="1563"/>
      <point x="696.5" y="1184"/>
    </contour>
    <contour>
      <point x="164" y="778" type="curve" smooth="yes"/>
      <point x="164" y="1270"/>
      <point x="487" y="1586"/>
      <point x="1177.5" y="1586" type="curve" smooth="yes"/>
      <point x="1868" y="1586"/>
      <point x="2190.5" y="1270"/>
      <point x="2190.5" y="778" type="curve" smooth="yes"/>
      <point x="2190.5" y="286"/>
      <point x="1868" y="-40"/>
      <point x="1177.5" y="-40" type="curve" smooth="yes"/>
      <point x="487" y="-40"/>
      <point x="164" y="286"/>
    </contour>
  </outline>
</glyph>
<glyph name="less" format="2">
  <advance width="2292"/>
  <unicode hex="003C"/>
  <outline>
    <contour>
      <point x="246" y="1584" type="line"/>
      <point x="246" y="1597" type="line"/>
      <point x="2048" y="2460" type="line"/>
      <point x="2048" y="2447" type="line"/>
    </contour>
    <contour>
      <point x="246" y="1579" type="line"/>
      <point x="246" y="1592" type="line"/>
      <point x="2048" y="727" type="line"/>
      <point x="2048" y="714" type="line"/>
    </contour>
  </outline>
</glyph>
<glyph name="question" format="2">
  <advance width="2395"/>
  <unicode hex="003F"/>
  <outline>
    <contour>
      <point x="1028" y="1465" type="line"/>
      <point x="1405" y="1571"/>
      <point x="1532" y="1914"/>
      <point x="1532" y="2294" type="curve" smooth="yes"/>
      <point x="1532" y="2680"/>
      <point x="1486" y="3086"/>
      <point x="1080" y="3086" type="curve" smooth="yes"/>
      <point x="650" y="3086"/>
      <point x="304" y="2736"/>
      <point x="276" y="2488" type="curve"/>
      <point x="300" y="2556"/>
      <point x="419" y="2663"/>
      <point x="582" y="2663" type="curve" smooth="yes"/>
      <point x="762" y="2663"/>
      <point x="917" y="2550"/>
      <point x="917" y="2355" type="curve" smooth="yes"/>
      <point x="917" y="2140"/>
      <point x="766" y="2023"/>
      <point x="582" y="2023" type="curve" smooth="yes"/>
      <point x="378" y="2023"/>
      <point x="246" y="2160"/>
      <point x="246" y="2379" type="curve" smooth="yes"/>
      <point x="246" y="2735"/>
      <point x="632" y="3112"/>
      <point x="1172" y="3112" type="curve" smooth="yes"/>
      <point x="1791" y="3112"/>
      <point x="2191" y="2786"/>
      <point x="2191" y="2294" type="curve" smooth="yes"/>
      <point x="2191" y="1822"/>
      <point x="1716" y="1495"/>
      <point x="1036" y="1459" type="curve"/>
      <point x="1036" y="999" type="line"/>
      <point x="1028" y="999" type="line"/>
    </contour>
    <component base="period" xOffset="569"/>
  </outline>
</glyph>
<glyph name="at" format="2">
  <advance width="4136"/>
  <unicode hex="0040"/>
  <outline>
    <contour>
      <point x="2447" y="1440.5" type="curve" smooth="yes"/>
      <point x="2447" y="835"/>
      <point x="2136.5" y="286"/>
      <point x="1696" y="286" type="curve" smooth="yes"/>
      <point x="1362" y="286"/>
      <point x="1082" y="516"/>
      <point x="1082" y="942" type="curve" smooth="yes"/>
      <point x="1082" y="1556"/>
      <point x="1541" y="2166"/>
      <point x="2030" y="2166" type="curve" smooth="yes"/>
      <point x="2382.5" y="2166"/>
      <point x="2447" y="1776.5"/>
    </contour>
    <contour>
      <point x="2431.5" y="1418" type="curve" smooth="yes"/>
      <point x="2431.5" y="1590"/>
      <point x="2422.5" y="2080.5"/>
      <point x="2139" y="2080.5" type="curve" smooth="yes"/>
      <point x="1877" y="2080.5"/>
      <point x="1617" y="1433.5"/>
      <point x="1617" y="925.5" type="curve" smooth="yes"/>
      <point x="1617" y="651.5"/>
      <point x="1679" y="374.5"/>
      <point x="1841.5" y="374.5" type="curve" smooth="yes"/>
      <point x="2143" y="374.5"/>
      <point x="2431.5" y="882"/>
    </contour>
    <contour>
      <point x="2344.5" y="860" type="curve" smooth="yes"/>
      <point x="2640" y="2130" type="line"/>
      <point x="3131" y="2130" type="line"/>
      <point x="2833" y="845.5" type="line" smooth="yes"/>
      <point x="2812.5" y="755"/>
      <point x="2655" y="326"/>
      <point x="2940" y="326" type="curve" smooth="yes"/>
      <point x="3488.5" y="326"/>
      <point x="3900" y="962.5"/>
      <point x="3900" y="1642" type="curve" smooth="yes"/>
      <point x="3900" y="2384"/>
      <point x="3428" y="3224"/>
      <point x="2396" y="3224" type="curve" smooth="yes"/>
      <point x="1209" y="3224"/>
      <point x="238" y="2142"/>
      <point x="238" y="864" type="curve" smooth="yes"/>
      <point x="238" y="-414"/>
      <point x="974" y="-864"/>
      <point x="1716" y="-864" type="curve" smooth="yes"/>
      <point x="2380" y="-864"/>
      <point x="2864" y="-652"/>
      <point x="3204" y="-254" type="curve"/>
      <point x="3216" y="-262" type="line"/>
      <point x="2872" y="-664"/>
      <point x="2384" y="-876"/>
      <point x="1716" y="-876" type="curve" smooth="yes"/>
      <point x="966" y="-876"/>
      <point x="226" y="-426"/>
      <point x="226" y="864" type="curve" smooth="yes"/>
      <point x="226" y="2146"/>
      <point x="1196" y="3236"/>
      <point x="2396" y="3236" type="curve" smooth="yes"/>
      <point x="3432" y="3236"/>
      <point x="3912" y="2392"/>
      <point x="3912" y="1642" type="curve" smooth="yes"/>
      <point x="3912" y="976"/>
      <point x="3530.5" y="278"/>
      <point x="2799.5" y="278" type="curve" smooth="yes"/>
      <point x="2374" y="278"/>
      <point x="2286.5" y="606"/>
    </contour>
  </outline>
</glyph>
<glyph name="A" format="2">
  <advance width="3212"/>
  <unicode hex="0041"/>
  <outline>
    <contour>
      <point x="70" y="13" type="line"/>
      <point x="971" y="13" type="line"/>
      <point x="971" y="0" type="line"/>
      <point x="70" y="0" type="line"/>
    </contour>
    <contour>
      <point x="1750" y="13" type="line"/>
      <point x="3143" y="13" type="line"/>
      <point x="3143" y="0" type="line"/>
      <point x="1750" y="0" type="line"/>
    </contour>
    <contour>
      <point x="817" y="1009" type="line"/>
      <point x="2119" y="1009" type="line"/>
      <point x="2119" y="996" type="line"/>
      <point x="817" y="996" type="line"/>
    </contour>
    <contour>
      <point x="1332" y="2439" type="line"/>
      <point x="474" y="0" type="line"/>
      <point x="459" y="0" type="line"/>
      <point x="1560" y="3134" type="line"/>
      <point x="1770" y="3134" type="line"/>
      <point x="2856" y="0" type="line"/>
      <point x="2119" y="0" type="line"/>
    </contour>
  </outline>
</glyph>
<glyph name="B" format="2">
  <advance width="2858"/>
  <unicode hex="0042"/>
  <outline>
    <contour>
      <point x="1462" y="1572" type="curve" smooth="yes"/>
      <point x="971" y="1572" type="line"/>
      <point x="971" y="1585" type="line"/>
      <point x="1381" y="1585" type="line" smooth="yes"/>
      <point x="1672" y="1585"/>
      <point x="1913" y="1786"/>
      <point x="1913" y="2274" type="curve" smooth="yes"/>
      <point x="1913" y="2762"/>
      <point x="1672" y="3059"/>
      <point x="1381" y="3059" type="curve" smooth="yes"/>
      <point x="70" y="3059" type="line"/>
      <point x="70" y="3072" type="line"/>
      <point x="1462" y="3072" type="line" smooth="yes"/>
      <point x="2142" y="3072"/>
      <point x="2568" y="2846"/>
      <point x="2568" y="2314" type="curve" smooth="yes"/>
      <point x="2568" y="1802"/>
      <point x="2183" y="1572"/>
    </contour>
    <contour>
      <point x="438" y="3072" type="line"/>
      <point x="1073" y="3072" type="line"/>
      <point x="1073" y="0" type="line"/>
      <point x="438" y="0" type="line"/>
    </contour>
    <contour>
      <point x="1544" y="0" type="curve" smooth="yes"/>
      <point x="70" y="0" type="line"/>
      <point x="70" y="13" type="line"/>
      <point x="1421" y="13" type="line" smooth="yes"/>
      <point x="1753" y="13"/>
      <point x="1995" y="372"/>
      <point x="1995" y="860" type="curve" smooth="yes"/>
      <point x="1995" y="1348"/>
      <point x="1753" y="1570"/>
      <point x="1421" y="1570" type="curve" smooth="yes"/>
      <point x="971" y="1570" type="line"/>
      <point x="971" y="1582" type="line"/>
      <point x="1544" y="1582" type="line" smooth="yes"/>
      <point x="2183" y="1582"/>
      <point x="2691" y="1392"/>
      <point x="2691" y="819" type="curve" smooth="yes"/>
      <point x="2691" y="225"/>
      <point x="2265" y="0"/>
    </contour>
  </outline>
</glyph>
<glyph name="C" format="2">
  <advance width="702"/>
  <unicode hex="0043"/>
  <outline>
    <contour>
      <point x="650" y="750" type="line"/>
      <point x="652" y="750" type="line"/>
      <point x="652" y="530" type="line"/>
      <point x="634" y="594"/>
      <point x="601" y="654"/>
      <point x="557" y="698" type="curve"/>
    </contour>
    <contour>
      <point x="652" y="530" type="curve"/>
      <point x="648" y="530" type="line"/>
      <point x="614" y="660"/>
      <point x="526" y="754"/>
      <point x="412" y="754" type="curve" smooth="yes"/>
      <point x="263" y="754"/>
      <point x="218" y="557"/>
      <point x="218" y="375" type="curve" smooth="yes"/>
      <point x="218" y="193"/>
      <point x="263" y="-4"/>
      <point x="412" y="-4" type="curve" smooth="yes"/>
      <point x="548" y="-4"/>
      <point x="631" y="98"/>
      <point x="659" y="220" type="curve"/>
      <point x="662" y="220" type="line"/>
      <point x="632" y="87"/>
      <point x="545" y="-10"/>
      <point x="402" y="-10" type="curve" smooth="yes"/>
      <point x="179" y="-10"/>
      <point x="42" y="152"/>
      <point x="42" y="375" type="curve" smooth="yes"/>
      <point x="42" y="598"/>
      <point x="179" y="760"/>
      <point x="402" y="760" type="curve" smooth="yes"/>
      <point x="530" y="760"/>
      <point x="617" y="663"/>
    </contour>
    <contour>
      <point x="662" y="220" type="curve"/>
      <point x="662" y="0" type="line"/>
      <point x="660" y="0" type="line"/>
      <point x="575" y="58" type="line"/>
      <point x="619" y="102"/>
      <point x="646" y="158"/>
    </contour>
  </outline>
</glyph>
<glyph name="D" format="2">
  <advance width="3105"/>
  <unicode hex="0044"/>
  <outline>
    <contour>
      <point x="438" y="3072" type="line"/>
      <point x="1073" y="3072" type="line"/>
      <point x="1073" y="0" type="line"/>
      <point x="438" y="0" type="line"/>
    </contour>
    <contour>
      <point x="1380" y="0" type="curve" smooth="yes"/>
      <point x="70" y="0" type="line"/>
      <point x="70" y="13" type="line"/>
      <point x="1380" y="13" type="line" smooth="yes"/>
      <point x="2011" y="13"/>
      <point x="2220" y="729"/>
      <point x="2220" y="1536" type="curve" smooth="yes"/>
      <point x="2220" y="2343"/>
      <point x="1969" y="3059"/>
      <point x="1380" y="3059" type="curve" smooth="yes"/>
      <point x="70" y="3059" type="line"/>
      <point x="70" y="3072" type="line"/>
      <point x="1380" y="3072" type="line" smooth="yes"/>
      <point x="2355" y="3072"/>
      <point x="2937" y="2449"/>
      <point x="2937" y="1536" type="curve" smooth="yes"/>
      <point x="2937" y="623"/>
      <point x="2314" y="0"/>
    </contour>
  </outline>
</glyph>
<glyph name="E" format="2">
  <advance width="5016"/>
  <unicode hex="0045"/>
  <outline>
    <contour>
      <point x="4752" y="1800" type="curve"/>
      <point x="4784" y="1800" type="line"/>
      <point x="4784" y="0" type="line"/>
      <point x="144" y="0" type="line"/>
      <point x="144" y="24" type="line"/>
      <point x="2944" y="24" type="line" smooth="yes"/>
      <point x="4040" y="24"/>
      <point x="4632" y="784"/>
    </contour>
    <contour>
      <point x="864" y="6000" type="line"/>
      <point x="2096" y="6000" type="line"/>
      <point x="2096" y="0" type="line"/>
      <point x="864" y="0" type="line"/>
    </contour>
    <contour>
      <point x="144" y="6000" type="line"/>
      <point x="4704" y="6000" type="line"/>
      <point x="4704" y="4360" type="line"/>
      <point x="4672" y="4360" type="line"/>
      <point x="4552" y="5216"/>
      <point x="3960" y="5976"/>
      <point x="3024" y="5976" type="curve" smooth="yes"/>
      <point x="144" y="5976" type="line"/>
    </contour>
    <contour>
      <point x="3440" y="2104" type="line"/>
      <point x="3320" y="2640"/>
      <point x="2840" y="3096"/>
      <point x="2384" y="3096" type="curve" smooth="yes"/>
      <point x="1824" y="3096" type="line"/>
      <point x="1824" y="3112" type="line"/>
      <point x="2384" y="3112" type="line" smooth="yes"/>
      <point x="2840" y="3112"/>
      <point x="3320" y="3528"/>
      <point x="3440" y="4064" type="curve"/>
      <point x="3456" y="4064" type="line"/>
      <point x="3456" y="2104" type="line"/>
    </contour>
  </outline>
</glyph>
<glyph name="F" format="2">
  <advance width="2467"/>
  <unicode hex="0046"/>
  <outline>
    <contour>
      <point x="72" y="3072" type="line"/>
      <point x="2345" y="3072" type="line"/>
      <point x="2345" y="2232" type="line"/>
      <point x="2333" y="2232" type="line"/>
      <point x="2272" y="2670"/>
      <point x="2006" y="3060"/>
      <point x="1547" y="3060" type="curve" smooth="yes"/>
      <point x="72" y="3060" type="line"/>
    </contour>
    <contour>
      <point x="72" y="12" type="line"/>
      <point x="1485" y="12" type="line"/>
      <point x="1485" y="0" type="line"/>
      <point x="72" y="0" type="line"/>
    </contour>
    <contour>
      <point x="440" y="3072" type="line"/>
      <point x="1075" y="3072" type="line"/>
      <point x="1075" y="0" type="line"/>
      <point x="440" y="0" type="line"/>
    </contour>
    <contour>
      <point x="1759" y="1016" type="line"/>
      <point x="1698" y="1290"/>
      <point x="1493" y="1524"/>
      <point x="1178" y="1524" type="curve" smooth="yes"/>
      <point x="911" y="1524" type="line"/>
      <point x="911" y="1532" type="line"/>
      <point x="1178" y="1532" type="line" smooth="yes"/>
      <point x="1493" y="1532"/>
      <point x="1698" y="1746"/>
      <point x="1759" y="2020" type="curve"/>
      <point x="1771" y="2020" type="line"/>
      <point x="1771" y="1016" type="line"/>
    </contour>
  </outline>
</glyph>
<glyph name="G" format="2">
  <advance width="3098"/>
  <unicode hex="0047"/>
  <outline>
    <contour>
      <point x="2750" y="2171" type="line"/>
      <point x="2651" y="2519"/>
      <point x="2482" y="2731"/>
      <point x="2312" y="2873" type="curve"/>
      <point x="2740" y="3072" type="line"/>
      <point x="2750" y="3072" type="line"/>
    </contour>
    <contour>
      <point x="1746" y="1175" type="line"/>
      <point x="3056" y="1175" type="line"/>
      <point x="3056" y="1161" type="line"/>
      <point x="1746" y="1161" type="line"/>
    </contour>
    <contour>
      <point x="2176" y="1168" type="line"/>
      <point x="2852" y="1168" type="line"/>
      <point x="2852" y="635" type="line"/>
      <point x="2586" y="356"/>
      <point x="2290" y="-40"/>
      <point x="1622" y="-40" type="curve" smooth="yes"/>
      <point x="709" y="-40"/>
      <point x="168" y="581"/>
      <point x="168" y="1536" type="curve" smooth="yes"/>
      <point x="168" y="2491"/>
      <point x="852" y="3112"/>
      <point x="1684" y="3112" type="curve" smooth="yes"/>
      <point x="2208" y="3112"/>
      <point x="2652" y="2675"/>
      <point x="2750" y="2171" type="curve"/>
      <point x="2738" y="2171" type="line"/>
      <point x="2656" y="2612"/>
      <point x="2230" y="3084"/>
      <point x="1736" y="3084" type="curve" smooth="yes"/>
      <point x="1126" y="3084"/>
      <point x="886" y="2282"/>
      <point x="886" y="1536" type="curve" smooth="yes"/>
      <point x="886" y="790"/>
      <point x="1032" y="-26"/>
      <point x="1622" y="-26" type="curve" smooth="yes"/>
      <point x="1966" y="-26"/>
      <point x="2115" y="340"/>
      <point x="2176" y="512" type="curve"/>
    </contour>
  </outline>
</glyph>
<glyph name="H" format="2">
  <advance width="3245"/>
  <unicode hex="0048"/>
  <outline>
    <contour>
      <point x="993" y="1520" type="line"/>
      <point x="2263" y="1520" type="line"/>
      <point x="2263" y="1512" type="line"/>
      <point x="993" y="1512" type="line"/>
    </contour>
    <contour>
      <point x="1813" y="12" type="line"/>
      <point x="3185" y="12" type="line"/>
      <point x="3185" y="0" type="line"/>
      <point x="1813" y="0" type="line"/>
    </contour>
    <contour>
      <point x="72" y="12" type="line"/>
      <point x="1444" y="12" type="line"/>
      <point x="1444" y="0" type="line"/>
      <point x="72" y="0" type="line"/>
    </contour>
    <contour>
      <point x="1813" y="3072" type="line"/>
      <point x="3185" y="3072" type="line"/>
      <point x="3185" y="3060" type="line"/>
      <point x="1813" y="3060" type="line"/>
    </contour>
    <contour>
      <point x="72" y="3072" type="line"/>
      <point x="1444" y="3072" type="line"/>
      <point x="1444" y="3060" type="line"/>
      <point x="72" y="3060" type="line"/>
    </contour>
    <contour>
      <point x="2181" y="3072" type="line"/>
      <point x="2816" y="3072" type="line"/>
      <point x="2816" y="0" type="line"/>
      <point x="2181" y="0" type="line"/>
    </contour>
    <contour>
      <point x="440" y="3072" type="line"/>
      <point x="1075" y="3072" type="line"/>
      <point x="1075" y="0" type="line"/>
      <point x="440" y="0" type="line"/>
    </contour>
  </outline>
</glyph>
<glyph name="I" format="2">
  <advance width="1715"/>
  <unicode hex="0049"/>
  <outline>
    <contour>
      <point x="70" y="13" type="line"/>
      <point x="1647" y="13" type="line"/>
      <point x="1647" y="0" type="line"/>
      <point x="70" y="0" type="line"/>
    </contour>
    <contour>
      <point x="70" y="3072" type="line"/>
      <point x="1647" y="3072" type="line"/>
      <point x="1647" y="3059" type="line"/>
      <point x="70" y="3059" type="line"/>
    </contour>
    <contour>
      <point x="520" y="3072" type="line"/>
      <point x="1155" y="3072" type="line"/>
      <point x="1155" y="0" type="line"/>
      <point x="520" y="0" type="line"/>
    </contour>
  </outline>
</glyph>
<glyph name="J" format="2">
  <advance width="2200"/>
  <unicode hex="004A"/>
  <outline>
    <contour>
      <point x="555" y="3072" type="line"/>
      <point x="2132" y="3072" type="line"/>
      <point x="2132" y="3059" type="line"/>
      <point x="555" y="3059" type="line"/>
    </contour>
    <contour>
      <point x="1087" y="3072" type="line"/>
      <point x="1722" y="3072" type="line"/>
      <point x="1722" y="696" type="line"/>
      <point x="1558" y="307"/>
      <point x="1337" y="-122"/>
      <point x="739" y="-122" type="curve" smooth="yes"/>
      <point x="321" y="-122"/>
      <point x="59" y="123"/>
      <point x="59" y="430" type="curve" smooth="yes"/>
      <point x="59" y="663"/>
      <point x="232" y="818"/>
      <point x="436" y="818" type="curve" smooth="yes"/>
      <point x="620" y="818"/>
      <point x="788" y="683"/>
      <point x="788" y="454" type="curve" smooth="yes"/>
      <point x="788" y="250"/>
      <point x="631" y="93"/>
      <point x="433" y="93" type="curve" smooth="yes"/>
      <point x="291" y="93"/>
      <point x="177" y="143"/>
      <point x="140" y="186" type="curve"/>
      <point x="222" y="40"/>
      <point x="434" y="-109"/>
      <point x="728" y="-109" type="curve" smooth="yes"/>
      <point x="1038" y="-109"/>
      <point x="1087" y="204"/>
      <point x="1087" y="778" type="curve" smooth="yes"/>
    </contour>
  </outline>
</glyph>
<glyph name="K" format="2">
  <advance width="767"/>
  <unicode hex="004B"/>
  <outline>
    <contour>
      <point x="18" y="3" type="line"/>
      <point x="352" y="3" type="line"/>
      <point x="352" y="0" type="line"/>
      <point x="18" y="0" type="line"/>
    </contour>
    <contour>
      <point x="18" y="750" type="line"/>
      <point x="362" y="750" type="line"/>
      <point x="362" y="747" type="line"/>
      <point x="18" y="747" type="line"/>
    </contour>
    <contour>
      <point x="108" y="750" type="line"/>
      <point x="262" y="750" type="line"/>
      <point x="262" y="0" type="line"/>
      <point x="108" y="0" type="line"/>
    </contour>
    <contour>
      <point x="148" y="217" type="line"/>
      <point x="144" y="217" type="line"/>
      <point x="598" y="748" type="line"/>
      <point x="602" y="748" type="line"/>
    </contour>
    <contour>
      <point x="402" y="3" type="line"/>
      <point x="762" y="3" type="line"/>
      <point x="762" y="0" type="line"/>
      <point x="402" y="0" type="line"/>
    </contour>
    <contour>
      <point x="718" y="747" type="line"/>
      <point x="478" y="747" type="line"/>
      <point x="478" y="750" type="line"/>
      <point x="718" y="750" type="line"/>
    </contour>
    <contour>
      <point x="684" y="0" type="line"/>
      <point x="504" y="0" type="line"/>
      <point x="287" y="383" type="line"/>
      <point x="390" y="499" type="line"/>
    </contour>
  </outline>
</glyph>
<glyph name="L" format="2">
  <advance width="4920"/>
  <unicode hex="004C"/>
  <outline>
    <contour>
      <point x="864" y="6000" type="line"/>
      <point x="2096" y="6000" type="line"/>
      <point x="2096" y="0" type="line"/>
      <point x="864" y="0" type="line"/>
    </contour>
    <contour>
      <point x="144" y="6000" type="line"/>
      <point x="648" y="6000"/>
      <point x="2312" y="6000"/>
      <point x="2816" y="6000" type="curve"/>
      <point x="2816" y="5976" type="line"/>
      <point x="144" y="5976" type="line"/>
    </contour>
    <contour>
      <point x="4760" y="0" type="line"/>
      <point x="144" y="0" type="line"/>
      <point x="144" y="24" type="line"/>
      <point x="2920" y="24" type="line" smooth="yes"/>
      <point x="4096" y="24"/>
      <point x="4616" y="784"/>
      <point x="4736" y="1800" type="curve"/>
      <point x="4760" y="1800" type="line"/>
    </contour>
  </outline>
</glyph>
<glyph name="M" format="2">
  <advance width="3496"/>
  <unicode hex="004D"/>
  <outline>
    <contour>
      <point x="3435.5" y="3072" type="line"/>
      <point x="3435.5" y="3060" type="line"/>
      <point x="3149.5" y="3060" type="line"/>
      <point x="3149.5" y="0" type="line"/>
      <point x="2637" y="0" type="line"/>
      <point x="2637" y="3072" type="line"/>
    </contour>
    <contour>
      <point x="97" y="12" type="line"/>
      <point x="719" y="12" type="line"/>
      <point x="719" y="0" type="line"/>
      <point x="97" y="0" type="line"/>
    </contour>
    <contour>
      <point x="2309" y="12" type="line"/>
      <point x="3435.5" y="12" type="line"/>
      <point x="3435.5" y="0" type="line"/>
      <point x="2309" y="0" type="line"/>
    </contour>
    <contour>
      <point x="1793.5" y="700" type="line"/>
      <point x="2633" y="3072" type="line"/>
      <point x="2641" y="3072" type="line"/>
      <point x="1549" y="-40" type="line"/>
      <point x="1535" y="-40" type="line"/>
      <point x="396.5" y="3072" type="line"/>
      <point x="912" y="3072" type="line"/>
    </contour>
    <contour>
      <point x="392.5" y="3060" type="line"/>
      <point x="77" y="3060" type="line"/>
      <point x="77" y="3072" type="line"/>
      <point x="405" y="3072" type="line"/>
      <point x="405" y="0" type="line"/>
      <point x="392.5" y="0" type="line"/>
    </contour>
  </outline>
</glyph>
<glyph name="N" format="2">
  <advance width="747"/>
  <unicode hex="004E"/>
  <outline>
    <contour>
      <point x="625" y="750" type="line"/>
      <point x="628" y="750" type="line"/>
      <point x="628" y="-10" type="line"/>
      <point x="624" y="-10" type="line"/>
      <point x="118" y="750" type="line"/>
      <point x="302" y="750" type="line"/>
      <point x="625" y="254" type="line"/>
    </contour>
    <contour>
      <point x="510" y="750" type="line"/>
      <point x="733" y="750" type="line"/>
      <point x="733" y="747" type="line"/>
      <point x="510" y="747" type="line"/>
    </contour>
    <contour>
      <point x="18" y="3" type="line"/>
      <point x="236" y="3" type="line"/>
      <point x="236" y="0" type="line"/>
      <point x="18" y="0" type="line"/>
    </contour>
    <contour>
      <point x="116" y="747" type="line"/>
      <point x="18" y="747" type="line"/>
      <point x="18" y="750" type="line"/>
      <point x="120" y="750" type="line"/>
      <point x="120" y="0" type="line"/>
      <point x="116" y="0" type="line"/>
    </contour>
  </outline>
</glyph>
<glyph name="O" format="2">
  <advance width="6096"/>
  <unicode hex="004F"/>
  <outline>
    <contour>
      <point x="3056" y="-80" type="curve" smooth="yes"/>
      <point x="1352" y="-80"/>
      <point x="336" y="1256"/>
      <point x="336" y="3000" type="curve" smooth="yes"/>
      <point x="336" y="4744"/>
      <point x="1432" y="6080"/>
      <point x="3056" y="6080" type="curve" smooth="yes"/>
      <point x="4680" y="6080"/>
      <point x="5776" y="4744"/>
      <point x="5776" y="3000" type="curve" smooth="yes"/>
      <point x="5776" y="1256"/>
      <point x="4760" y="-80"/>
    </contour>
    <contour>
      <point x="3056" y="6056" type="curve" smooth="yes"/>
      <point x="2024" y="6056"/>
      <point x="1744" y="4656"/>
      <point x="1744" y="3000" type="curve" smooth="yes"/>
      <point x="1744" y="1344"/>
      <point x="1944" y="-56"/>
      <point x="3056" y="-56" type="curve" smooth="yes"/>
      <point x="4168" y="-56"/>
      <point x="4384" y="1344"/>
      <point x="4384" y="3000" type="curve" smooth="yes"/>
      <point x="4384" y="4656"/>
      <point x="4088" y="6056"/>
    </contour>
  </outline>
</glyph>
<glyph name="P" format="2">
  <advance width="2626"/>
  <unicode hex="0050"/>
  <outline>
    <contour>
      <point x="445" y="3072" type="line"/>
      <point x="957.5" y="3072" type="line"/>
      <point x="957.5" y="0" type="line"/>
      <point x="445" y="0" type="line"/>
    </contour>
    <contour>
      <point x="77" y="12" type="line"/>
      <point x="1326" y="12" type="line"/>
      <point x="1326" y="0" type="line"/>
      <point x="77" y="0" type="line"/>
    </contour>
    <contour>
      <point x="1387.5" y="1388" type="curve" smooth="yes"/>
      <point x="824.5" y="1388" type="line"/>
      <point x="824.5" y="1396" type="line"/>
      <point x="1346.5" y="1396" type="line" smooth="yes"/>
      <point x="1720" y="1396"/>
      <point x="1909.5" y="1848"/>
      <point x="1909.5" y="2212" type="curve" smooth="yes"/>
      <point x="1909.5" y="2576"/>
      <point x="1720" y="3060"/>
      <point x="1346.5" y="3060" type="curve" smooth="yes"/>
      <point x="77" y="3060" type="line"/>
      <point x="77" y="3072" type="line"/>
      <point x="1387.5" y="3072" type="line" smooth="yes"/>
      <point x="2150" y="3072"/>
      <point x="2484" y="2744"/>
      <point x="2484" y="2212" type="curve" smooth="yes"/>
      <point x="2484" y="1680"/>
      <point x="2150" y="1388"/>
    </contour>
  </outline>
</glyph>
<glyph name="Q" format="2">
  <advance width="3122"/>
  <unicode hex="0051"/>
  <outline>
    <contour>
      <point x="1567" y="-40" type="curve" smooth="yes"/>
      <point x="694" y="-40"/>
      <point x="174" y="643"/>
      <point x="174" y="1536" type="curve" smooth="yes"/>
      <point x="174" y="2429"/>
      <point x="736" y="3112"/>
      <point x="1567" y="3112" type="curve" smooth="yes"/>
      <point x="2398" y="3112"/>
      <point x="2959" y="2429"/>
      <point x="2959" y="1536" type="curve" smooth="yes"/>
      <point x="2959" y="643"/>
      <point x="2440" y="-40"/>
    </contour>
    <contour>
      <point x="1567" y="3100" type="curve" smooth="yes"/>
      <point x="1038" y="3100"/>
      <point x="891" y="2384"/>
      <point x="891" y="1536" type="curve" smooth="yes"/>
      <point x="891" y="688"/>
      <point x="998" y="-28"/>
      <point x="1567" y="-28" type="curve" smooth="yes"/>
      <point x="2136" y="-28"/>
      <point x="2242" y="688"/>
      <point x="2242" y="1536" type="curve" smooth="yes"/>
      <point x="2242" y="2384"/>
      <point x="2096" y="3100"/>
    </contour>
    <contour>
      <point x="2386" y="-1012" type="curve"/>
      <point x="2386" y="-1024" type="line"/>
      <point x="1370" y="-1024"/>
      <point x="1198" y="-795"/>
      <point x="1198" y="16" type="curve"/>
      <point x="1440" y="-55"/>
      <point x="1681" y="-55"/>
      <point x="1915" y="16" type="curve"/>
      <point x="1915" y="-730"/>
      <point x="1940" y="-1012"/>
    </contour>
  </outline>
</glyph>
<glyph name="R" format="2">
  <advance width="3044"/>
  <unicode hex="0052"/>
  <outline>
    <contour>
      <point x="1503" y="1571" type="curve" smooth="yes"/>
      <point x="807" y="1571" type="line"/>
      <point x="807" y="1584" type="line"/>
      <point x="1401" y="1584" type="line" smooth="yes"/>
      <point x="1795" y="1584"/>
      <point x="1995" y="1826"/>
      <point x="1995" y="2313" type="curve" smooth="yes"/>
      <point x="1995" y="2800"/>
      <point x="1795" y="3059"/>
      <point x="1401" y="3059" type="curve" smooth="yes"/>
      <point x="70" y="3059" type="line"/>
      <point x="70" y="3072" type="line"/>
      <point x="1503" y="3072" type="line" smooth="yes"/>
      <point x="2183" y="3072"/>
      <point x="2650" y="2845"/>
      <point x="2650" y="2313" type="curve" smooth="yes"/>
      <point x="2650" y="1781"/>
      <point x="2224" y="1571"/>
    </contour>
    <contour>
      <point x="70" y="13" type="line"/>
      <point x="1524" y="13" type="line"/>
      <point x="1524" y="0" type="line"/>
      <point x="70" y="0" type="line"/>
    </contour>
    <contour>
      <point x="479" y="3072" type="line"/>
      <point x="1114" y="3072" type="line"/>
      <point x="1114" y="0" type="line"/>
      <point x="479" y="0" type="line"/>
    </contour>
    <contour>
      <point x="2998" y="54" type="line"/>
      <point x="2932" y="18"/>
      <point x="2753" y="-30"/>
      <point x="2507" y="-30" type="curve" smooth="yes"/>
      <point x="1389" y="-30"/>
      <point x="2409" y="1568"/>
      <point x="1401" y="1568" type="curve" smooth="yes"/>
      <point x="807" y="1568" type="line"/>
      <point x="807" y="1581" type="line"/>
      <point x="1729" y="1581" type="line" smooth="yes"/>
      <point x="3071" y="1581"/>
      <point x="2261" y="9"/>
      <point x="2764" y="9" type="curve" smooth="yes"/>
      <point x="2850" y="9"/>
      <point x="2935" y="34"/>
      <point x="2993" y="62" type="curve"/>
    </contour>
  </outline>
</glyph>
<glyph name="S" format="2">
  <advance width="2445"/>
  <unicode hex="0053"/>
  <outline>
    <contour>
      <point x="2122" y="2192" type="curve"/>
      <point x="2106" y="2192" type="line"/>
      <point x="1942" y="2760"/>
      <point x="1623" y="3094"/>
      <point x="1147" y="3094" type="curve" smooth="yes"/>
      <point x="815" y="3094"/>
      <point x="646" y="2882"/>
      <point x="646" y="2600" type="curve" smooth="yes"/>
      <point x="646" y="1904"/>
      <point x="2284" y="2067"/>
      <point x="2284" y="881" type="curve" smooth="yes"/>
      <point x="2284" y="308"/>
      <point x="1838" y="-62"/>
      <point x="1260" y="-62" type="curve" smooth="yes"/>
      <point x="622" y="-62"/>
      <point x="334" y="429"/>
      <point x="174" y="921" type="curve"/>
      <point x="188" y="921" type="line"/>
      <point x="346" y="435"/>
      <point x="637" y="-46"/>
      <point x="1243" y="-46" type="curve" smooth="yes"/>
      <point x="1636" y="-46"/>
      <point x="1874" y="212"/>
      <point x="1874" y="574" type="curve" smooth="yes"/>
      <point x="1874" y="1352"/>
      <point x="216" y="1107"/>
      <point x="216" y="2294" type="curve" smooth="yes"/>
      <point x="216" y="2806"/>
      <point x="650" y="3112"/>
      <point x="1126" y="3112" type="curve" smooth="yes"/>
      <point x="1630" y="3112"/>
      <point x="1958" y="2770"/>
    </contour>
    <contour>
      <point x="2110" y="3112" type="line"/>
      <point x="2122" y="3112" type="line"/>
      <point x="2122" y="2192" type="line"/>
      <point x="2021" y="2472"/>
      <point x="1921" y="2683"/>
      <point x="1734" y="2873" type="curve"/>
    </contour>
    <contour>
      <point x="185" y="-40" type="line"/>
      <point x="174" y="-40" type="line"/>
      <point x="174" y="921" type="line"/>
      <point x="305" y="589"/>
      <point x="410" y="392"/>
      <point x="572" y="221" type="curve"/>
    </contour>
  </outline>
</glyph>
<glyph name="T" format="2">
  <advance width="2783"/>
  <unicode hex="0054"/>
  <outline>
    <contour>
      <point x="624" y="13" type="line"/>
      <point x="2160" y="13" type="line"/>
      <point x="2160" y="0" type="line"/>
      <point x="624" y="0" type="line"/>
    </contour>
    <contour>
      <point x="1074" y="3068" type="line"/>
      <point x="1710" y="3068" type="line"/>
      <point x="1710" y="0" type="line"/>
      <point x="1074" y="0" type="line"/>
    </contour>
    <contour>
      <point x="1975" y="3059" type="curve" smooth="yes"/>
      <point x="808" y="3059" type="line" smooth="yes"/>
      <point x="369" y="3059"/>
      <point x="144" y="2609"/>
      <point x="83" y="2089" type="curve"/>
      <point x="70" y="2089" type="line"/>
      <point x="70" y="3072" type="line"/>
      <point x="2714" y="3072" type="line"/>
      <point x="2714" y="2089" type="line"/>
      <point x="2700" y="2089" type="line"/>
      <point x="2639" y="2609"/>
      <point x="2414" y="3059"/>
    </contour>
  </outline>
</glyph>
<glyph name="U" format="2">
  <advance width="2966"/>
  <unicode hex="0055"/>
  <outline>
    <contour>
      <point x="2096" y="3072" type="line"/>
      <point x="2896" y="3072" type="line"/>
      <point x="2896" y="3059" type="line"/>
      <point x="2096" y="3059" type="line"/>
    </contour>
    <contour>
      <point x="70" y="3072" type="line"/>
      <point x="1483" y="3072" type="line"/>
      <point x="1483" y="3059" type="line"/>
      <point x="70" y="3059" type="line"/>
    </contour>
    <contour>
      <point x="2479" y="3072" type="line"/>
      <point x="2494" y="3072" type="line"/>
      <point x="2494" y="942" type="line" smooth="yes"/>
      <point x="2494" y="266"/>
      <point x="2212" y="-62"/>
      <point x="1544" y="-62" type="curve" smooth="yes"/>
      <point x="774" y="-62"/>
      <point x="438" y="234"/>
      <point x="438" y="942" type="curve" smooth="yes"/>
      <point x="438" y="3072" type="line"/>
      <point x="1073" y="3072" type="line"/>
      <point x="1073" y="984" type="line" smooth="yes"/>
      <point x="1073" y="444"/>
      <point x="1170" y="-21"/>
      <point x="1698" y="-21" type="curve" smooth="yes"/>
      <point x="2181" y="-21"/>
      <point x="2479" y="274"/>
      <point x="2479" y="942" type="curve" smooth="yes"/>
    </contour>
  </outline>
</glyph>
<glyph name="V" format="2">
  <advance width="3191"/>
  <unicode hex="0056"/>
  <outline>
    <contour>
      <point x="3132" y="3059" type="line"/>
      <point x="2230" y="3059" type="line"/>
      <point x="2230" y="3072" type="line"/>
      <point x="3132" y="3072" type="line"/>
    </contour>
    <contour>
      <point x="1534" y="3059" type="line"/>
      <point x="59" y="3059" type="line"/>
      <point x="59" y="3072" type="line"/>
      <point x="1534" y="3072" type="line"/>
    </contour>
    <contour>
      <point x="1874" y="634" type="line"/>
      <point x="2748" y="3072" type="line"/>
      <point x="2763" y="3072" type="line"/>
      <point x="1641" y="-62" type="line"/>
      <point x="1432" y="-62" type="line"/>
      <point x="346" y="3072" type="line"/>
      <point x="1083" y="3072" type="line"/>
    </contour>
  </outline>
</glyph>
<glyph name="W" format="2">
  <advance width="4515"/>
  <unicode hex="0057"/>
  <outline>
    <contour>
      <point x="2439" y="1946" type="line"/>
      <point x="1679" y="-40" type="line"/>
      <point x="1505" y="-40" type="line"/>
      <point x="375" y="3072" type="line"/>
      <point x="1096" y="3072" type="line"/>
      <point x="1948" y="701" type="line"/>
      <point x="2453" y="2024" type="line"/>
    </contour>
    <contour>
      <point x="2681" y="1907" type="line"/>
      <point x="2681" y="1952" type="line"/>
      <point x="3098" y="3072" type="line"/>
      <point x="3113" y="3072" type="line"/>
    </contour>
    <contour>
      <point x="4475" y="3060" type="line"/>
      <point x="3656" y="3060" type="line"/>
      <point x="3656" y="3072" type="line"/>
      <point x="4475" y="3072" type="line"/>
    </contour>
    <contour>
      <point x="2347" y="3072" type="line"/>
      <point x="3194" y="701" type="line"/>
      <point x="4086" y="3072" type="line"/>
      <point x="4100" y="3072" type="line"/>
      <point x="2931" y="-40" type="line"/>
      <point x="2820" y="-40" type="line"/>
      <point x="1688" y="3072" type="line"/>
    </contour>
    <contour>
      <point x="3471" y="3060" type="line"/>
      <point x="51" y="3060" type="line"/>
      <point x="51" y="3072" type="line"/>
      <point x="3471" y="3072" type="line"/>
    </contour>
  </outline>
</glyph>
<glyph name="X" format="2">
  <advance width="792"/>
  <unicode hex="0058"/>
  <outline>
    <contour>
      <point x="398" y="377" type="line"/>
      <point x="394" y="377" type="line"/>
      <point x="629" y="748" type="line"/>
      <point x="633" y="748" type="line"/>
    </contour>
    <contour>
      <point x="126" y="0" type="line"/>
      <point x="122" y="0" type="line"/>
      <point x="398" y="417" type="line"/>
      <point x="402" y="417" type="line"/>
    </contour>
    <contour>
      <point x="442" y="3" type="line"/>
      <point x="782" y="3" type="line"/>
      <point x="782" y="0" type="line"/>
      <point x="442" y="0" type="line"/>
    </contour>
    <contour>
      <point x="12" y="3" type="line"/>
      <point x="252" y="3" type="line"/>
      <point x="252" y="0" type="line"/>
      <point x="12" y="0" type="line"/>
    </contour>
    <contour>
      <point x="388" y="747" type="line"/>
      <point x="48" y="747" type="line"/>
      <point x="48" y="750" type="line"/>
      <point x="388" y="750" type="line"/>
    </contour>
    <contour>
      <point x="728" y="747" type="line"/>
      <point x="508" y="747" type="line"/>
      <point x="508" y="750" type="line"/>
      <point x="728" y="750" type="line"/>
    </contour>
    <contour>
      <point x="718" y="0" type="line"/>
      <point x="538" y="0" type="line"/>
      <point x="108" y="750" type="line"/>
      <point x="284" y="750" type="line"/>
    </contour>
  </outline>
</glyph>
<glyph name="Y" format="2">
  <advance width="3020"/>
  <unicode hex="0059"/>
  <outline>
    <contour>
      <point x="2980" y="3060" type="line"/>
      <point x="2120" y="3060" type="line"/>
      <point x="2120" y="3072" type="line"/>
      <point x="2980" y="3072" type="line"/>
    </contour>
    <contour>
      <point x="1485" y="3060" type="line"/>
      <point x="51" y="3060" type="line"/>
      <point x="51" y="3072" type="line"/>
      <point x="1485" y="3072" type="line"/>
    </contour>
    <contour>
      <point x="870" y="12" type="line"/>
      <point x="2284" y="12" type="line"/>
      <point x="2284" y="0" type="line"/>
      <point x="870" y="0" type="line"/>
    </contour>
    <contour>
      <point x="1866" y="1582" type="line"/>
      <point x="2597" y="3064" type="line"/>
      <point x="2613" y="3064" type="line"/>
      <point x="1874" y="1568" type="line"/>
      <point x="1874" y="0" type="line"/>
      <point x="1239" y="0" type="line"/>
      <point x="1239" y="1474" type="line"/>
      <point x="317" y="3072" type="line"/>
      <point x="1054" y="3072" type="line"/>
    </contour>
  </outline>
</glyph>
<glyph name="Z" format="2">
  <advance width="4936"/>
  <unicode hex="005A"/>
  <outline>
    <contour>
      <point x="256" y="6000" type="line"/>
      <point x="4576" y="6000" type="line"/>
      <point x="4576" y="5976" type="line"/>
      <point x="1504" y="24" type="line"/>
      <point x="2976" y="24" type="line" smooth="yes"/>
      <point x="4072" y="24"/>
      <point x="4480" y="624"/>
      <point x="4640" y="1640" type="curve"/>
      <point x="4656" y="1640" type="line"/>
      <point x="4656" y="0" type="line"/>
      <point x="96" y="0" type="line"/>
      <point x="96" y="24" type="line"/>
      <point x="3184" y="5976" type="line"/>
      <point x="1936" y="5976" type="line" smooth="yes"/>
      <point x="840" y="5976"/>
      <point x="448" y="5376"/>
      <point x="288" y="4520" type="curve"/>
      <point x="256" y="4520" type="line"/>
    </contour>
  </outline>
</glyph>
<glyph name="grave" format="2">
  <advance width="1678"/>
  <unicode hex="0060"/>
  <outline>
    <contour>
      <point x="491" y="2870" type="line" smooth="yes"/>
      <point x="353" y="2847"/>
      <point x="226" y="2953"/>
      <point x="226" y="3092" type="curve" smooth="yes"/>
      <point x="226" y="3231"/>
      <point x="376" y="3373"/>
      <point x="533" y="3310" type="curve" smooth="yes"/>
      <point x="1440" y="2976" type="line"/>
      <point x="1436" y="2964" type="line"/>
    </contour>
  </outline>
</glyph>
<glyph name="a" format="2">
  <advance width="2359"/>
  <unicode hex="0061"/>
  <outline>
    <contour>
      <point x="2359" y="258" type="line"/>
      <point x="2265" y="54"/>
      <point x="2053" y="-40"/>
      <point x="1815" y="-40" type="curve" smooth="yes"/>
      <point x="1561" y="-40"/>
      <point x="1335" y="38"/>
      <point x="1335" y="320" type="curve" smooth="yes"/>
      <point x="1335" y="1250" type="line" smooth="yes"/>
      <point x="1335" y="1565"/>
      <point x="1255" y="1894"/>
      <point x="948" y="1894" type="curve" smooth="yes"/>
      <point x="715" y="1894"/>
      <point x="512" y="1798"/>
      <point x="432" y="1720" type="curve"/>
      <point x="721" y="1841"/>
      <point x="946" y="1680"/>
      <point x="946" y="1487" type="curve" smooth="yes"/>
      <point x="946" y="1303"/>
      <point x="766" y="1192"/>
      <point x="602" y="1192" type="curve" smooth="yes"/>
      <point x="418" y="1192"/>
      <point x="287" y="1311"/>
      <point x="287" y="1479" type="curve" smooth="yes"/>
      <point x="287" y="1743"/>
      <point x="644" y="1916"/>
      <point x="1057" y="1916" type="curve" smooth="yes"/>
      <point x="1733" y="1916"/>
      <point x="1909" y="1623"/>
      <point x="1909" y="1250" type="curve" smooth="yes"/>
      <point x="1909" y="182" type="line" smooth="yes"/>
      <point x="1909" y="90"/>
      <point x="1960" y="29"/>
      <point x="2058" y="29" type="curve" smooth="yes"/>
      <point x="2124" y="29"/>
      <point x="2267" y="86"/>
      <point x="2351" y="258" type="curve"/>
    </contour>
    <contour>
      <point x="1040" y="1032" type="curve" smooth="yes"/>
      <point x="1548" y="1032" type="line"/>
      <point x="1548" y="1024" type="line"/>
      <point x="1183" y="1024" type="line" smooth="yes"/>
      <point x="933" y="1024"/>
      <point x="766" y="786"/>
      <point x="766" y="512" type="curve" smooth="yes"/>
      <point x="766" y="260"/>
      <point x="856" y="119"/>
      <point x="999" y="119" type="curve" smooth="yes"/>
      <point x="1167" y="119"/>
      <point x="1335" y="269"/>
      <point x="1335" y="742" type="curve"/>
      <point x="1348" y="742" type="line"/>
      <point x="1348" y="234"/>
      <point x="1150" y="-40"/>
      <point x="696" y="-40" type="curve" smooth="yes"/>
      <point x="372" y="-40"/>
      <point x="143" y="158"/>
      <point x="143" y="462" type="curve" smooth="yes"/>
      <point x="143" y="806"/>
      <point x="438" y="1032"/>
    </contour>
  </outline>
</glyph>
<glyph name="b" format="2">
  <advance width="2530"/>
  <unicode hex="0062"/>
  <outline>
    <contour>
      <point x="893" y="942" type="curve" smooth="yes"/>
      <point x="893" y="1564"/>
      <point x="1122" y="1922"/>
      <point x="1542" y="1922" type="curve" smooth="yes"/>
      <point x="1988" y="1922"/>
      <point x="2411" y="1556"/>
      <point x="2411" y="942" type="curve" smooth="yes"/>
      <point x="2411" y="328"/>
      <point x="1988" y="-40"/>
      <point x="1542" y="-40" type="curve" smooth="yes"/>
      <point x="1124" y="-40"/>
      <point x="893" y="320"/>
    </contour>
    <contour>
      <point x="903" y="942" type="curve" smooth="yes"/>
      <point x="903" y="314"/>
      <point x="1155" y="10"/>
      <point x="1417" y="10" type="curve" smooth="yes"/>
      <point x="1659" y="10"/>
      <point x="1755" y="353"/>
      <point x="1755" y="942" type="curve" smooth="yes"/>
      <point x="1755" y="1531"/>
      <point x="1659" y="1870"/>
      <point x="1417" y="1870" type="curve" smooth="yes"/>
      <point x="1155" y="1870"/>
      <point x="903" y="1570"/>
    </contour>
    <contour>
      <point x="330" y="3060" type="line"/>
      <point x="61" y="3060" type="line"/>
      <point x="61" y="3072" type="line"/>
      <point x="903" y="3072" type="line"/>
      <point x="903" y="0" type="line"/>
      <point x="61" y="0" type="line"/>
      <point x="61" y="12" type="line"/>
      <point x="330" y="12" type="line"/>
    </contour>
  </outline>
</glyph>
<glyph name="c" format="2">
  <advance width="511"/>
  <unicode hex="0063"/>
  <outline>
    <contour>
      <point x="455" y="378" type="curve"/>
      <point x="438" y="427"/>
      <point x="371" y="466"/>
      <point x="301" y="466" type="curve" smooth="yes"/>
      <point x="207" y="466"/>
      <point x="195" y="324"/>
      <point x="195" y="230" type="curve" smooth="yes"/>
      <point x="195" y="116"/>
      <point x="217" y="-2"/>
      <point x="301" y="-2" type="curve" smooth="yes"/>
      <point x="385" y="-2"/>
      <point x="444" y="58"/>
      <point x="470" y="143" type="curve"/>
      <point x="473" y="143" type="line"/>
      <point x="447" y="56"/>
      <point x="389" y="-10"/>
      <point x="278" y="-10" type="curve" smooth="yes"/>
      <point x="132" y="-10"/>
      <point x="30" y="70"/>
      <point x="30" y="230" type="curve" smooth="yes"/>
      <point x="30" y="370"/>
      <point x="118" y="470"/>
      <point x="284" y="470" type="curve" smooth="yes"/>
      <point x="391" y="470"/>
      <point x="472" y="411"/>
      <point x="472" y="334" type="curve" smooth="yes"/>
      <point x="472" y="283"/>
      <point x="438" y="254"/>
      <point x="393" y="254" type="curve" smooth="yes"/>
      <point x="353" y="254"/>
      <point x="311" y="274"/>
      <point x="311" y="332" type="curve" smooth="yes"/>
      <point x="311" y="382"/>
      <point x="354" y="408"/>
      <point x="388" y="408" type="curve" smooth="yes"/>
      <point x="421" y="408"/>
      <point x="444" y="394"/>
    </contour>
  </outline>
</glyph>
<glyph name="d" format="2">
  <advance width="2582"/>
  <unicode hex="0064"/>
  <outline>
    <contour>
      <point x="1668" y="940" type="curve" smooth="yes"/>
      <point x="1668" y="320"/>
      <point x="1438" y="-38"/>
      <point x="1016" y="-38" type="curve" smooth="yes"/>
      <point x="570" y="-38"/>
      <point x="149" y="326"/>
      <point x="149" y="940" type="curve" smooth="yes"/>
      <point x="149" y="1554"/>
      <point x="570" y="1924"/>
      <point x="1016" y="1924" type="curve" smooth="yes"/>
      <point x="1436" y="1924"/>
      <point x="1668" y="1560"/>
    </contour>
    <contour>
      <point x="1656" y="940" type="curve" smooth="yes"/>
      <point x="1656" y="1566"/>
      <point x="1401" y="1871"/>
      <point x="1142" y="1871" type="curve" smooth="yes"/>
      <point x="901" y="1871"/>
      <point x="804" y="1530"/>
      <point x="804" y="940" type="curve" smooth="yes"/>
      <point x="804" y="350"/>
      <point x="902" y="14"/>
      <point x="1143" y="14" type="curve" smooth="yes"/>
      <point x="1402" y="14"/>
      <point x="1656" y="314"/>
    </contour>
    <contour>
      <point x="2496" y="13" type="line"/>
      <point x="2496" y="0" type="line"/>
      <point x="1656" y="0" type="line"/>
      <point x="1656" y="3059" type="line"/>
      <point x="1389" y="3059" type="line"/>
      <point x="1389" y="3072" type="line"/>
      <point x="2230" y="3072" type="line"/>
      <point x="2230" y="13" type="line"/>
    </contour>
  </outline>
</glyph>
<glyph name="e" format="2">
  <advance width="2181"/>
  <unicode hex="0065"/>
  <outline>
    <contour>
      <point x="423" y="1063" type="line"/>
      <point x="423" y="1078" type="line"/>
      <point x="1430" y="1078" type="line"/>
      <point x="1430" y="1436"/>
      <point x="1403" y="1911"/>
      <point x="1141" y="1911" type="curve" smooth="yes"/>
      <point x="859" y="1911"/>
      <point x="784" y="1449"/>
      <point x="784" y="983" type="curve" smooth="yes"/>
      <point x="784" y="455"/>
      <point x="870" y="-9"/>
      <point x="1254" y="-9" type="curve" smooth="yes"/>
      <point x="1644" y="-9"/>
      <point x="1930" y="243"/>
      <point x="2032" y="584" type="curve"/>
      <point x="2044" y="584" type="line"/>
      <point x="1938" y="229"/>
      <point x="1649" y="-40"/>
      <point x="1154" y="-40" type="curve" smooth="yes"/>
      <point x="578" y="-40"/>
      <point x="149" y="307"/>
      <point x="149" y="942" type="curve" smooth="yes"/>
      <point x="149" y="1577"/>
      <point x="564" y="1926"/>
      <point x="1141" y="1926" type="curve" smooth="yes"/>
      <point x="1751" y="1926"/>
      <point x="2040" y="1509"/>
      <point x="2040" y="1063" type="curve"/>
    </contour>
  </outline>
</glyph>
<glyph name="f" format="2">
  <advance width="385"/>
  <unicode hex="0066"/>
  <outline>
    <contour>
      <point x="10" y="3" type="line"/>
      <point x="346" y="3" type="line"/>
      <point x="346" y="0" type="line"/>
      <point x="10" y="0" type="line"/>
    </contour>
    <contour>
      <point x="10" y="460" type="line"/>
      <point x="366" y="460" type="line"/>
      <point x="366" y="457" type="line"/>
      <point x="10" y="457" type="line"/>
    </contour>
    <contour>
      <point x="466" y="676" type="curve"/>
      <point x="456" y="708"/>
      <point x="420" y="757"/>
      <point x="338" y="757" type="curve" smooth="yes"/>
      <point x="258" y="757"/>
      <point x="230" y="667"/>
      <point x="230" y="540" type="curve" smooth="yes"/>
      <point x="230" y="0" type="line"/>
      <point x="96" y="0" type="line"/>
      <point x="96" y="512" type="line" smooth="yes"/>
      <point x="96" y="653"/>
      <point x="193" y="760"/>
      <point x="338" y="760" type="curve" smooth="yes"/>
      <point x="424" y="760"/>
      <point x="476" y="703"/>
      <point x="476" y="646" type="curve" smooth="yes"/>
      <point x="476" y="595"/>
      <point x="443" y="564"/>
      <point x="398" y="564" type="curve" smooth="yes"/>
      <point x="358" y="564"/>
      <point x="318" y="590"/>
      <point x="318" y="639" type="curve" smooth="yes"/>
      <point x="318" y="687"/>
      <point x="356" y="716"/>
      <point x="396" y="716" type="curve" smooth="yes"/>
      <point x="428" y="716"/>
      <point x="451" y="700"/>
    </contour>
  </outline>
</glyph>
<glyph name="g" format="2">
  <advance width="4896"/>
  <unicode hex="0067"/>
  <outline>
    <contour>
      <point x="376" y="512" type="curve" smooth="yes"/>
      <point x="376" y="1104"/>
      <point x="1272" y="1328"/>
      <point x="1960" y="1328" type="curve"/>
      <point x="1960" y="1312" type="line"/>
      <point x="1616" y="1312"/>
      <point x="1080" y="1208"/>
      <point x="1080" y="912" type="curve" smooth="yes"/>
      <point x="1080" y="672"/>
      <point x="1456" y="672"/>
      <point x="1896" y="672" type="curve" smooth="yes"/>
      <point x="2176" y="672"/>
      <point x="2360" y="680"/>
      <point x="2584" y="680" type="curve" smooth="yes"/>
      <point x="3184" y="680"/>
      <point x="3920" y="432"/>
      <point x="3920" y="-656" type="curve" smooth="yes"/>
      <point x="3920" y="-1624"/>
      <point x="3120" y="-2080"/>
      <point x="2040" y="-2080" type="curve" smooth="yes"/>
      <point x="1096" y="-2080"/>
      <point x="120" y="-1800"/>
      <point x="120" y="-1080" type="curve" smooth="yes"/>
      <point x="120" y="-392"/>
      <point x="1000" y="-248"/>
      <point x="1360" y="-248" type="curve" smooth="yes"/>
      <point x="1400" y="-248" type="line"/>
      <point x="1120" y="-400"/>
      <point x="1080" y="-720"/>
      <point x="1080" y="-896" type="curve" smooth="yes"/>
      <point x="1080" y="-1520"/>
      <point x="1424" y="-2048"/>
      <point x="2112" y="-2048" type="curve" smooth="yes"/>
      <point x="2864" y="-2048"/>
      <point x="3728" y="-1728"/>
      <point x="3728" y="-992" type="curve" smooth="yes"/>
      <point x="3728" y="-480"/>
      <point x="3120" y="-272"/>
      <point x="2600" y="-272" type="curve" smooth="yes"/>
      <point x="2392" y="-272"/>
      <point x="1944" y="-272"/>
      <point x="1768" y="-272" type="curve" smooth="yes"/>
      <point x="1048" y="-272"/>
      <point x="376" y="-104"/>
    </contour>
    <contour>
      <point x="1480" y="2520" type="curve" smooth="yes"/>
      <point x="1480" y="1848"/>
      <point x="1520" y="1328"/>
      <point x="1952" y="1328" type="curve" smooth="yes"/>
      <point x="2264" y="1328"/>
      <point x="2424" y="1848"/>
      <point x="2424" y="2520" type="curve" smooth="yes"/>
      <point x="2424" y="3192"/>
      <point x="2264" y="3736"/>
      <point x="1952" y="3736" type="curve" smooth="yes"/>
      <point x="1640" y="3736"/>
      <point x="1480" y="3192"/>
    </contour>
    <contour>
      <point x="320" y="2520" type="curve" smooth="yes"/>
      <point x="320" y="3400"/>
      <point x="1184" y="3760"/>
      <point x="1952" y="3760" type="curve" smooth="yes"/>
      <point x="2720" y="3760"/>
      <point x="3584" y="3400"/>
      <point x="3584" y="2520" type="curve" smooth="yes"/>
      <point x="3584" y="1640"/>
      <point x="2720" y="1312"/>
      <point x="1952" y="1312" type="curve" smooth="yes"/>
      <point x="1184" y="1312"/>
      <point x="320" y="1640"/>
    </contour>
    <contour>
      <point x="4784" y="3152" type="curve"/>
      <point x="4744" y="3408"/>
      <point x="4512" y="3696"/>
      <point x="4048" y="3696" type="curve" smooth="yes"/>
      <point x="3640" y="3696"/>
      <point x="3168" y="3464"/>
      <point x="3008" y="2768" type="curve"/>
      <point x="2992" y="2776" type="line"/>
      <point x="3152" y="3504"/>
      <point x="3648" y="3720"/>
      <point x="4048" y="3720" type="curve" smooth="yes"/>
      <point x="4576" y="3720"/>
      <point x="4816" y="3360"/>
      <point x="4816" y="3056" type="curve" smooth="yes"/>
      <point x="4816" y="2616"/>
      <point x="4552" y="2472"/>
      <point x="4312" y="2472" type="curve" smooth="yes"/>
      <point x="4072" y="2472"/>
      <point x="3808" y="2632"/>
      <point x="3808" y="2976" type="curve" smooth="yes"/>
      <point x="3808" y="3240"/>
      <point x="4016" y="3448"/>
      <point x="4304" y="3448" type="curve" smooth="yes"/>
      <point x="4528" y="3448"/>
      <point x="4736" y="3312"/>
    </contour>
  </outline>
</glyph>
<glyph name="h" format="2">
  <advance width="2477"/>
  <unicode hex="0068"/>
  <outline>
    <contour>
      <point x="1579" y="1301" type="line" smooth="yes"/>
      <point x="1579" y="1645"/>
      <point x="1551" y="1814"/>
      <point x="1379" y="1814" type="curve" smooth="yes"/>
      <point x="977" y="1814"/>
      <point x="903" y="1286"/>
      <point x="903" y="914" type="curve"/>
      <point x="893" y="903" type="line"/>
      <point x="893" y="1309"/>
      <point x="954" y="1926"/>
      <point x="1571" y="1926" type="curve" smooth="yes"/>
      <point x="2030" y="1926"/>
      <point x="2153" y="1662"/>
      <point x="2153" y="1306" type="curve" smooth="yes"/>
      <point x="2153" y="0" type="line"/>
      <point x="1579" y="0" type="line"/>
    </contour>
    <contour>
      <point x="1373" y="12" type="line"/>
      <point x="2419" y="12" type="line"/>
      <point x="2419" y="0" type="line"/>
      <point x="1373" y="0" type="line"/>
    </contour>
    <contour>
      <point x="61" y="12" type="line"/>
      <point x="1108" y="12" type="line"/>
      <point x="1108" y="0" type="line"/>
      <point x="61" y="0" type="line"/>
    </contour>
    <contour>
      <point x="330" y="3060" type="line"/>
      <point x="61" y="3060" type="line"/>
      <point x="61" y="3072" type="line"/>
      <point x="903" y="3072" type="line"/>
      <point x="903" y="0" type="line"/>
      <point x="330" y="0" type="line"/>
    </contour>
  </outline>
</glyph>
<glyph name="i" format="2">
  <advance width="302"/>
  <unicode hex="0069"/>
  <outline>
    <contour>
      <point x="20" y="3" type="line"/>
      <point x="290" y="3" type="line"/>
      <point x="290" y="0" type="line"/>
      <point x="20" y="0" type="line"/>
    </contour>
    <contour>
      <point x="60" y="675" type="curve" smooth="yes"/>
      <point x="60" y="723"/>
      <point x="98" y="760"/>
      <point x="146" y="760" type="curve" smooth="yes"/>
      <point x="194" y="760"/>
      <point x="230" y="723"/>
      <point x="230" y="675" type="curve" smooth="yes"/>
      <point x="230" y="627"/>
      <point x="194" y="590"/>
      <point x="146" y="590" type="curve" smooth="yes"/>
      <point x="98" y="590"/>
      <point x="60" y="627"/>
    </contour>
    <contour>
      <point x="86" y="457" type="line"/>
      <point x="20" y="457" type="line"/>
      <point x="20" y="460" type="line"/>
      <point x="226" y="460" type="line"/>
      <point x="226" y="0" type="line"/>
      <point x="86" y="0" type="line"/>
    </contour>
  </outline>
</glyph>
<glyph name="j" format="2">
  <advance width="2496"/>
  <unicode hex="006A"/>
  <outline>
    <contour>
      <point x="624" y="5400" type="curve" smooth="yes"/>
      <point x="624" y="5784"/>
      <point x="912" y="6080"/>
      <point x="1296" y="6080" type="curve" smooth="yes"/>
      <point x="1680" y="6080"/>
      <point x="1984" y="5784"/>
      <point x="1984" y="5400" type="curve" smooth="yes"/>
      <point x="1984" y="5016"/>
      <point x="1680" y="4720"/>
      <point x="1296" y="4720" type="curve" smooth="yes"/>
      <point x="912" y="4720"/>
      <point x="624" y="5016"/>
    </contour>
    <contour>
      <point x="1920" y="3680" type="line"/>
      <point x="1920" y="-96" type="line" smooth="yes"/>
      <point x="1920" y="-1144"/>
      <point x="1312" y="-2080"/>
      <point x="192" y="-2080" type="curve" smooth="yes"/>
      <point x="-536" y="-2080"/>
      <point x="-1040" y="-1648"/>
      <point x="-1040" y="-1120" type="curve" smooth="yes"/>
      <point x="-1040" y="-720"/>
      <point x="-736" y="-472"/>
      <point x="-384" y="-472" type="curve" smooth="yes"/>
      <point x="-64" y="-472"/>
      <point x="272" y="-664"/>
      <point x="272" y="-1064" type="curve" smooth="yes"/>
      <point x="272" y="-1448"/>
      <point x="0" y="-1672"/>
      <point x="-416" y="-1672" type="curve" smooth="yes"/>
      <point x="-744" y="-1672"/>
      <point x="-952" y="-1448"/>
      <point x="-992" y="-1224" type="curve"/>
      <point x="-976" y="-1640"/>
      <point x="-520" y="-2040"/>
      <point x="88" y="-2040" type="curve" smooth="yes"/>
      <point x="928" y="-2040"/>
      <point x="784" y="-840"/>
      <point x="784" y="176" type="curve" smooth="yes"/>
      <point x="800" y="3656" type="line"/>
      <point x="120" y="3656" type="line"/>
      <point x="120" y="3680" type="line"/>
    </contour>
  </outline>
</glyph>
<glyph name="k" format="2">
  <advance width="626"/>
  <unicode hex="006B"/>
  <outline>
    <contour>
      <point x="584" y="0" type="line"/>
      <point x="410" y="0" type="line"/>
      <point x="212" y="266" type="line"/>
      <point x="484" y="460" type="line"/>
      <point x="489" y="460" type="line"/>
      <point x="320" y="337" type="line"/>
    </contour>
    <contour>
      <point x="344" y="3" type="line"/>
      <point x="622" y="3" type="line"/>
      <point x="622" y="0" type="line"/>
      <point x="344" y="0" type="line"/>
    </contour>
    <contour>
      <point x="572" y="457" type="line"/>
      <point x="359" y="457" type="line"/>
      <point x="359" y="460" type="line"/>
      <point x="572" y="460" type="line"/>
    </contour>
    <contour>
      <point x="15" y="3" type="line"/>
      <point x="296" y="3" type="line"/>
      <point x="296" y="0" type="line"/>
      <point x="15" y="0" type="line"/>
    </contour>
    <contour>
      <point x="100" y="747" type="line"/>
      <point x="15" y="747" type="line"/>
      <point x="15" y="750" type="line"/>
      <point x="240" y="750" type="line"/>
      <point x="240" y="0" type="line"/>
      <point x="100" y="0" type="line"/>
    </contour>
  </outline>
</glyph>
<glyph name="l" format="2">
  <advance width="1444"/>
  <unicode hex="006C"/>
  <outline>
    <contour>
      <point x="87" y="13" type="line"/>
      <point x="1358" y="13" type="line"/>
      <point x="1358" y="0" type="line"/>
      <point x="87" y="0" type="line"/>
    </contour>
    <contour>
      <point x="437" y="3059" type="line"/>
      <point x="87" y="3059" type="line"/>
      <point x="87" y="3072" type="line"/>
      <point x="1010" y="3072" type="line"/>
      <point x="1010" y="0" type="line"/>
      <point x="437" y="0" type="line"/>
    </contour>
  </outline>
</glyph>
<glyph name="m" format="2">
  <advance width="3460"/>
  <unicode hex="006D"/>
  <outline>
    <contour>
      <point x="1969.5" y="1306" type="curve" smooth="yes"/>
      <point x="1969.5" y="0" type="line"/>
      <point x="1499" y="0" type="line"/>
      <point x="1499" y="1281.5" type="line" smooth="yes"/>
      <point x="1499" y="1625.5"/>
      <point x="1480.5" y="1860"/>
      <point x="1289.5" y="1860" type="curve" smooth="yes"/>
      <point x="879.5" y="1860"/>
      <point x="801.5" y="1298.5"/>
      <point x="801.5" y="914" type="curve"/>
      <point x="790.5" y="897.5" type="line"/>
      <point x="790.5" y="1295.5"/>
      <point x="841.5" y="1926"/>
      <point x="1412.5" y="1926" type="curve" smooth="yes"/>
      <point x="1834.5" y="1926"/>
      <point x="1969.5" y="1662"/>
    </contour>
    <contour>
      <point x="71.5" y="12" type="line"/>
      <point x="1022" y="12" type="line"/>
      <point x="1022" y="0" type="line"/>
      <point x="71.5" y="0" type="line"/>
    </contour>
    <contour>
      <point x="1275.5" y="12" type="line"/>
      <point x="2189.5" y="12" type="line"/>
      <point x="2189.5" y="0" type="line"/>
      <point x="1275.5" y="0" type="line"/>
    </contour>
    <contour>
      <point x="2442" y="12" type="line"/>
      <point x="3392" y="12" type="line"/>
      <point x="3392" y="0" type="line"/>
      <point x="2442" y="0" type="line"/>
    </contour>
    <contour>
      <point x="331" y="1872" type="line"/>
      <point x="71.5" y="1872" type="line"/>
      <point x="71.5" y="1884" type="line"/>
      <point x="801.5" y="1884" type="line"/>
      <point x="801.5" y="0" type="line"/>
      <point x="331" y="0" type="line"/>
    </contour>
    <contour>
      <point x="3137" y="1306" type="curve" smooth="yes"/>
      <point x="3137" y="0" type="line"/>
      <point x="2665" y="0" type="line"/>
      <point x="2665" y="1281.5" type="line" smooth="yes"/>
      <point x="2665" y="1625.5"/>
      <point x="2648.5" y="1860"/>
      <point x="2457.5" y="1860" type="curve" smooth="yes"/>
      <point x="2044.5" y="1860"/>
      <point x="1969.5" y="1298.5"/>
      <point x="1969.5" y="914" type="curve"/>
      <point x="1958.5" y="897.5" type="line"/>
      <point x="1958.5" y="1295.5"/>
      <point x="2003.5" y="1926"/>
      <point x="2577.5" y="1926" type="curve" smooth="yes"/>
      <point x="2999.5" y="1926"/>
      <point x="3137" y="1662"/>
    </contour>
  </outline>
</glyph>
<glyph name="n" format="2">
  <advance width="605"/>
  <unicode hex="006E"/>
  <outline>
    <contour>
      <point x="386" y="318" type="line" smooth="yes"/>
      <point x="386" y="402"/>
      <point x="378" y="443"/>
      <point x="336" y="443" type="curve" smooth="yes"/>
      <point x="238" y="443"/>
      <point x="220" y="314"/>
      <point x="220" y="223" type="curve"/>
      <point x="218" y="220" type="line"/>
      <point x="218" y="319"/>
      <point x="234" y="470"/>
      <point x="384" y="470" type="curve" smooth="yes"/>
      <point x="496" y="470"/>
      <point x="526" y="406"/>
      <point x="526" y="319" type="curve" smooth="yes"/>
      <point x="526" y="0" type="line"/>
      <point x="386" y="0" type="line"/>
    </contour>
    <contour>
      <point x="335" y="3" type="line"/>
      <point x="590" y="3" type="line"/>
      <point x="590" y="0" type="line"/>
      <point x="335" y="0" type="line"/>
    </contour>
    <contour>
      <point x="15" y="3" type="line"/>
      <point x="270" y="3" type="line"/>
      <point x="270" y="0" type="line"/>
      <point x="15" y="0" type="line"/>
    </contour>
    <contour>
      <point x="80" y="457" type="line"/>
      <point x="15" y="457" type="line"/>
      <point x="15" y="460" type="line"/>
      <point x="220" y="460" type="line"/>
      <point x="220" y="0" type="line"/>
      <point x="80" y="0" type="line"/>
    </contour>
  </outline>
</glyph>
<glyph name="o" format="2">
  <advance width="2244"/>
  <unicode hex="006F"/>
  <outline>
    <contour>
      <point x="738" y="942" type="curve" smooth="yes"/>
      <point x="738" y="454"/>
      <point x="820" y="-28"/>
      <point x="1123" y="-28" type="curve" smooth="yes"/>
      <point x="1426" y="-28"/>
      <point x="1508" y="454"/>
      <point x="1508" y="942" type="curve" smooth="yes"/>
      <point x="1508" y="1430"/>
      <point x="1426" y="1912"/>
      <point x="1123" y="1912" type="curve" smooth="yes"/>
      <point x="820" y="1912"/>
      <point x="738" y="1430"/>
    </contour>
    <contour>
      <point x="123" y="942" type="curve" smooth="yes"/>
      <point x="123" y="1474"/>
      <point x="504" y="1926"/>
      <point x="1123" y="1926" type="curve" smooth="yes"/>
      <point x="1742" y="1926"/>
      <point x="2122" y="1474"/>
      <point x="2122" y="942" type="curve" smooth="yes"/>
      <point x="2122" y="410"/>
      <point x="1742" y="-40"/>
      <point x="1123" y="-40" type="curve" smooth="yes"/>
      <point x="504" y="-40"/>
      <point x="123" y="410"/>
    </contour>
  </outline>
</glyph>
<glyph name="p" format="2">
  <advance width="4944"/>
  <unicode hex="0070"/>
  <outline>
    <contour>
      <point x="1744" y="1840" type="curve" smooth="yes"/>
      <point x="1744" y="3056"/>
      <point x="2192" y="3752"/>
      <point x="3008" y="3752" type="curve" smooth="yes"/>
      <point x="3880" y="3752"/>
      <point x="4704" y="3040"/>
      <point x="4704" y="1840" type="curve" smooth="yes"/>
      <point x="4704" y="640"/>
      <point x="3880" y="-80"/>
      <point x="3008" y="-80" type="curve" smooth="yes"/>
      <point x="2192" y="-80"/>
      <point x="1744" y="624"/>
    </contour>
    <contour>
      <point x="1760" y="1840" type="curve" smooth="yes"/>
      <point x="1760" y="608"/>
      <point x="2256" y="16"/>
      <point x="2768" y="16" type="curve" smooth="yes"/>
      <point x="3240" y="16"/>
      <point x="3424" y="688"/>
      <point x="3424" y="1840" type="curve" smooth="yes"/>
      <point x="3424" y="2992"/>
      <point x="3240" y="3648"/>
      <point x="2768" y="3648" type="curve" smooth="yes"/>
      <point x="2256" y="3648"/>
      <point x="1760" y="3072"/>
    </contour>
    <contour>
      <point x="120" y="-1976" type="line"/>
      <point x="2288" y="-1976" type="line"/>
      <point x="2288" y="-2000" type="line"/>
      <point x="120" y="-2000" type="line"/>
    </contour>
    <contour>
      <point x="640" y="3656" type="line"/>
      <point x="120" y="3656" type="line"/>
      <point x="120" y="3680" type="line"/>
      <point x="1760" y="3680" type="line"/>
      <point x="1760" y="-2000" type="line"/>
      <point x="640" y="-2000" type="line"/>
    </contour>
  </outline>
</glyph>
<glyph name="q" format="2">
  <advance width="2530"/>
  <unicode hex="0071"/>
  <outline>
    <contour>
      <point x="1642" y="940" type="curve" smooth="yes"/>
      <point x="1642" y="318"/>
      <point x="1411" y="-38"/>
      <point x="991" y="-38" type="curve" smooth="yes"/>
      <point x="545" y="-38"/>
      <point x="123" y="326"/>
      <point x="123" y="940" type="curve" smooth="yes"/>
      <point x="123" y="1554"/>
      <point x="545" y="1924"/>
      <point x="991" y="1924" type="curve" smooth="yes"/>
      <point x="1409" y="1924"/>
      <point x="1642" y="1562"/>
    </contour>
    <contour>
      <point x="1630" y="940" type="curve" smooth="yes"/>
      <point x="1630" y="1570"/>
      <point x="1377" y="1872"/>
      <point x="1117" y="1872" type="curve" smooth="yes"/>
      <point x="875" y="1872"/>
      <point x="779" y="1527"/>
      <point x="779" y="940" type="curve" smooth="yes"/>
      <point x="779" y="353"/>
      <point x="875" y="12"/>
      <point x="1117" y="12" type="curve" smooth="yes"/>
      <point x="1379" y="12"/>
      <point x="1630" y="310"/>
    </contour>
    <contour>
      <point x="2472" y="-1012" type="line"/>
      <point x="2472" y="-1024" type="line"/>
      <point x="1364" y="-1024" type="line"/>
      <point x="1364" y="-1012" type="line"/>
    </contour>
    <contour>
      <point x="2472" y="1884" type="line"/>
      <point x="2472" y="1872" type="line"/>
      <point x="2204" y="1872" type="line"/>
      <point x="2204" y="-1024" type="line"/>
      <point x="1630" y="-1024" type="line"/>
      <point x="1630" y="1884" type="line"/>
    </contour>
  </outline>
</glyph>
<glyph name="r" format="2">
  <advance width="1994"/>
  <unicode hex="0072"/>
  <outline>
    <contour>
      <point x="1884" y="1618" type="curve"/>
      <point x="1823" y="1806"/>
      <point x="1636" y="1911"/>
      <point x="1460" y="1911" type="curve" smooth="yes"/>
      <point x="967" y="1911"/>
      <point x="928" y="1372"/>
      <point x="928" y="912" type="curve"/>
      <point x="916" y="912" type="line"/>
      <point x="916" y="1411"/>
      <point x="967" y="1926"/>
      <point x="1461" y="1926" type="curve" smooth="yes"/>
      <point x="1691" y="1926"/>
      <point x="1920" y="1753"/>
      <point x="1920" y="1492" type="curve" smooth="yes"/>
      <point x="1920" y="1301"/>
      <point x="1797" y="1140"/>
      <point x="1580" y="1140" type="curve" smooth="yes"/>
      <point x="1383" y="1140"/>
      <point x="1236" y="1264"/>
      <point x="1236" y="1466" type="curve" smooth="yes"/>
      <point x="1236" y="1800"/>
      <point x="1702" y="1938"/>
    </contour>
    <contour>
      <point x="87" y="13" type="line"/>
      <point x="1195" y="13" type="line"/>
      <point x="1195" y="0" type="line"/>
      <point x="87" y="0" type="line"/>
    </contour>
    <contour>
      <point x="355" y="1871" type="line"/>
      <point x="87" y="1871" type="line"/>
      <point x="87" y="1884" type="line"/>
      <point x="928" y="1884" type="line"/>
      <point x="928" y="0" type="line"/>
      <point x="355" y="0" type="line"/>
    </contour>
  </outline>
</glyph>
<glyph name="s" format="2">
  <advance width="440"/>
  <unicode hex="0073"/>
  <outline>
    <contour>
      <point x="360" y="374" type="curve"/>
      <point x="348" y="394"/>
      <point x="332" y="413"/>
      <point x="316" y="427" type="curve"/>
      <point x="378" y="470" type="line"/>
      <point x="380" y="470" type="line"/>
      <point x="380" y="330" type="line"/>
      <point x="378" y="330" type="line"/>
      <point x="378" y="339"/>
      <point x="364" y="366"/>
    </contour>
    <contour>
      <point x="380" y="330" type="curve"/>
      <point x="377" y="330" type="line"/>
      <point x="357" y="394"/>
      <point x="298" y="466"/>
      <point x="202" y="466" type="curve" smooth="yes"/>
      <point x="145" y="466"/>
      <point x="110" y="438"/>
      <point x="110" y="400" type="curve" smooth="yes"/>
      <point x="110" y="291"/>
      <point x="415" y="335"/>
      <point x="415" y="147" type="curve" smooth="yes"/>
      <point x="415" y="43"/>
      <point x="326" y="-10"/>
      <point x="234" y="-10" type="curve" smooth="yes"/>
      <point x="135" y="-10"/>
      <point x="63" y="52"/>
      <point x="38" y="145" type="curve"/>
      <point x="40" y="145" type="line"/>
      <point x="65" y="53"/>
      <point x="139" y="-6"/>
      <point x="232" y="-6" type="curve" smooth="yes"/>
      <point x="296" y="-6"/>
      <point x="342" y="21"/>
      <point x="342" y="72" type="curve" smooth="yes"/>
      <point x="342" y="184"/>
      <point x="47" y="129"/>
      <point x="47" y="325" type="curve" smooth="yes"/>
      <point x="47" y="404"/>
      <point x="107" y="469"/>
      <point x="202" y="469" type="curve" smooth="yes"/>
      <point x="300" y="469"/>
      <point x="360" y="396"/>
    </contour>
    <contour>
      <point x="40" y="-10" type="line"/>
      <point x="38" y="-10" type="line"/>
      <point x="38" y="145" type="line"/>
      <point x="40" y="145" type="line"/>
      <point x="41" y="127"/>
      <point x="55" y="102"/>
      <point x="59" y="94" type="curve"/>
      <point x="74" y="70"/>
      <point x="90" y="50"/>
      <point x="103" y="38" type="curve"/>
    </contour>
  </outline>
</glyph>
<glyph name="t" format="2">
  <advance width="1513"/>
  <unicode hex="0074"/>
  <outline>
    <contour>
      <point x="46" y="1884" type="line"/>
      <point x="1356" y="1884" type="line"/>
      <point x="1356" y="1871" type="line"/>
      <point x="46" y="1871" type="line"/>
    </contour>
    <contour>
      <point x="1479" y="416" type="line"/>
      <point x="1381" y="156"/>
      <point x="1152" y="-28"/>
      <point x="820" y="-28" type="curve" smooth="yes"/>
      <point x="423" y="-28"/>
      <point x="346" y="188"/>
      <point x="346" y="475" type="curve" smooth="yes"/>
      <point x="346" y="2294" type="line"/>
      <point x="530" y="2294"/>
      <point x="775" y="2334"/>
      <point x="918" y="2416" type="curve"/>
      <point x="918" y="342" type="line" smooth="yes"/>
      <point x="918" y="138"/>
      <point x="964" y="60"/>
      <point x="1074" y="60" type="curve" smooth="yes"/>
      <point x="1208" y="60"/>
      <point x="1376" y="195"/>
      <point x="1467" y="418" type="curve"/>
    </contour>
  </outline>
</glyph>
<glyph name="u" format="2">
  <advance width="2530"/>
  <unicode hex="0075"/>
  <outline>
    <contour>
      <point x="928" y="1884" type="line"/>
      <point x="928" y="584" type="line" smooth="yes"/>
      <point x="928" y="240"/>
      <point x="956" y="71"/>
      <point x="1128" y="71" type="curve" smooth="yes"/>
      <point x="1526" y="71"/>
      <point x="1603" y="602"/>
      <point x="1603" y="970" type="curve"/>
      <point x="1616" y="980" type="line"/>
      <point x="1616" y="575"/>
      <point x="1550" y="-40"/>
      <point x="936" y="-40" type="curve" smooth="yes"/>
      <point x="477" y="-40"/>
      <point x="355" y="222"/>
      <point x="355" y="578" type="curve" smooth="yes"/>
      <point x="355" y="1871" type="line"/>
      <point x="87" y="1871" type="line"/>
      <point x="87" y="1884" type="line"/>
    </contour>
    <contour>
      <point x="2178" y="13" type="line"/>
      <point x="2444" y="13" type="line"/>
      <point x="2444" y="0" type="line"/>
      <point x="1603" y="0" type="line"/>
      <point x="1603" y="1871" type="line"/>
      <point x="1338" y="1871" type="line"/>
      <point x="1338" y="1884" type="line"/>
      <point x="2178" y="1884" type="line"/>
    </contour>
  </outline>
</glyph>
<glyph name="v" format="2">
  <advance width="2237"/>
  <unicode hex="0076"/>
  <outline>
    <contour>
      <point x="2216" y="1872" type="line"/>
      <point x="1480.5" y="1872" type="line"/>
      <point x="1480.5" y="1884" type="line"/>
      <point x="2216" y="1884" type="line"/>
    </contour>
    <contour>
      <point x="1088" y="1872" type="line"/>
      <point x="-5" y="1872" type="line"/>
      <point x="-5" y="1884" type="line"/>
      <point x="1088" y="1884" type="line"/>
    </contour>
    <contour>
      <point x="1291" y="454" type="line"/>
      <point x="1877.5" y="1884" type="line"/>
      <point x="1894" y="1884" type="line"/>
      <point x="1106" y="-40" type="line"/>
      <point x="1024" y="-40" type="line"/>
      <point x="234" y="1884" type="line"/>
      <point x="755" y="1884" type="line"/>
    </contour>
  </outline>
</glyph>
<glyph name="w" format="2">
  <advance width="6520"/>
  <unicode hex="0077"/>
  <outline>
    <contour>
      <point x="2352" y="3656" type="line"/>
      <point x="-16" y="3656" type="line"/>
      <point x="-16" y="3680" type="line"/>
      <point x="2352" y="3680" type="line"/>
    </contour>
    <contour>
      <point x="6504" y="3656" type="line"/>
      <point x="4864" y="3656" type="line"/>
      <point x="4864" y="3680" type="line"/>
      <point x="6504" y="3680" type="line"/>
    </contour>
    <contour>
      <point x="2416" y="1024" type="line"/>
      <point x="3552" y="3760" type="line"/>
      <point x="4104" y="3760" type="line"/>
      <point x="4880" y="1200" type="line"/>
      <point x="5712" y="3680" type="line"/>
      <point x="5744" y="3680" type="line"/>
      <point x="4480" y="-80" type="line"/>
      <point x="4176" y="-80" type="line"/>
      <point x="3136" y="2696" type="line"/>
      <point x="2000" y="-80" type="line"/>
      <point x="1688" y="-80" type="line"/>
      <point x="464" y="3680" type="line"/>
      <point x="1656" y="3680" type="line"/>
    </contour>
  </outline>
</glyph>
<glyph name="x" format="2">
  <advance width="2309"/>
  <unicode hex="0078"/>
  <outline>
    <contour>
      <point x="1170" y="12" type="line"/>
      <point x="2281" y="12" type="line"/>
      <point x="2281" y="0" type="line"/>
      <point x="1170" y="0" type="line"/>
    </contour>
    <contour>
      <point x="30" y="12" type="line"/>
      <point x="768" y="12" type="line"/>
      <point x="768" y="0" type="line"/>
      <point x="30" y="0" type="line"/>
    </contour>
    <contour>
      <point x="1204" y="1872" type="line"/>
      <point x="51" y="1872" type="line"/>
      <point x="51" y="1884" type="line"/>
      <point x="1204" y="1884" type="line"/>
    </contour>
    <contour>
      <point x="2230" y="1872" type="line"/>
      <point x="1536" y="1872" type="line"/>
      <point x="1536" y="1884" type="line"/>
      <point x="2230" y="1884" type="line"/>
    </contour>
    <contour>
      <point x="2118" y="0" type="line"/>
      <point x="1442" y="0" type="line"/>
      <point x="258" y="1884" type="line"/>
      <point x="913" y="1884" type="line"/>
    </contour>
    <contour>
      <point x="332" y="0" type="line"/>
      <point x="316" y="0" type="line"/>
      <point x="1891" y="1884" type="line"/>
      <point x="1907" y="1884" type="line"/>
    </contour>
  </outline>
</glyph>
<glyph name="y" format="2">
  <advance width="2274"/>
  <unicode hex="0079"/>
  <outline>
    <contour>
      <point x="1101" y="1872" type="line"/>
      <point x="-15.5" y="1872" type="line"/>
      <point x="-15.5" y="1884" type="line"/>
      <point x="1101" y="1884" type="line"/>
    </contour>
    <contour>
      <point x="2324.5" y="1872" type="line"/>
      <point x="1645" y="1872" type="line"/>
      <point x="1645" y="1884" type="line"/>
      <point x="2324.5" y="1884" type="line"/>
    </contour>
    <contour>
      <point x="1439.5" y="482" type="line"/>
      <point x="1180.5" y="-95" type="line"/>
      <point x="198.5" y="1884" type="line"/>
      <point x="741.5" y="1884" type="line"/>
    </contour>
    <contour>
      <point x="853.5" y="-842.5" type="curve"/>
      <point x="2031.5" y="1884" type="line"/>
      <point x="2046.5" y="1884" type="line"/>
      <point x="889" y="-802.5" type="line" smooth="yes"/>
      <point x="817" y="-961.5"/>
      <point x="739" y="-1068.5"/>
      <point x="573" y="-1068.5" type="curve" smooth="yes"/>
      <point x="440" y="-1068.5"/>
      <point x="299" y="-981"/>
      <point x="299" y="-804.5" type="curve" smooth="yes"/>
      <point x="299" y="-648"/>
      <point x="412.5" y="-528"/>
      <point x="575" y="-528" type="curve" smooth="yes"/>
      <point x="731.5" y="-528"/>
      <point x="856" y="-654.5"/>
    </contour>
  </outline>
</glyph>
<glyph name="z" format="2">
  <advance width="1976"/>
  <unicode hex="007A"/>
  <outline>
    <contour>
      <point x="850" y="1871" type="line" smooth="yes"/>
      <point x="465" y="1871"/>
      <point x="255" y="1594"/>
      <point x="194" y="1180" type="curve"/>
      <point x="182" y="1180" type="line"/>
      <point x="182" y="1884" type="line"/>
      <point x="1824" y="1884" type="line"/>
      <point x="1824" y="1871" type="line"/>
      <point x="714" y="13" type="line"/>
      <point x="1126" y="13" type="line" smooth="yes"/>
      <point x="1606" y="13"/>
      <point x="1815" y="246"/>
      <point x="1876" y="754" type="curve"/>
      <point x="1890" y="754" type="line"/>
      <point x="1890" y="0" type="line"/>
      <point x="67" y="0" type="line"/>
      <point x="67" y="13" type="line"/>
      <point x="1172" y="1871" type="line"/>
    </contour>
  </outline>
</glyph>
<glyph name="cent" format="2">
  <advance width="4088"/>
  <unicode hex="00A2"/>
  <outline>
    <contour>
      <point x="2272" y="4440" type="line"/>
      <point x="2272" y="-680" type="line"/>
      <point x="2240" y="-680" type="line"/>
      <point x="2240" y="4440" type="line"/>
    </contour>
    <component base="c"/>
  </outline>
</glyph>
<glyph name="sterling" format="2">
  <advance width="2623"/>
  <unicode hex="00A3"/>
  <outline>
    <contour>
      <point x="2527.5" y="766.5" type="line"/>
      <point x="2527.5" y="70"/>
      <point x="2216" y="-122"/>
      <point x="1800.5" y="-122" type="curve" smooth="yes"/>
      <point x="1238.5" y="-122"/>
      <point x="1024" y="122"/>
      <point x="766" y="122" type="curve" smooth="yes"/>
      <point x="598" y="122"/>
      <point x="352" y="40"/>
      <point x="312" y="-82" type="curve"/>
      <point x="300" y="-82" type="line"/>
      <point x="371.5" y="222"/>
      <point x="641.5" y="520.5"/>
      <point x="1012" y="520.5" type="curve" smooth="yes"/>
      <point x="1401.5" y="520.5"/>
      <point x="1574" y="381"/>
      <point x="1865.5" y="381" type="curve" smooth="yes"/>
      <point x="2143" y="381"/>
      <point x="2515.5" y="430.5"/>
      <point x="2515.5" y="766.5" type="curve"/>
    </contour>
    <contour>
      <point x="1904" y="1649" type="line"/>
      <point x="1904" y="1638" type="line"/>
      <point x="62" y="1638" type="line"/>
      <point x="62" y="1649" type="line"/>
    </contour>
    <contour>
      <point x="443" y="2252" type="curve" smooth="yes"/>
      <point x="443" y="2826"/>
      <point x="881.5" y="3112"/>
      <point x="1572" y="3112" type="curve" smooth="yes"/>
      <point x="2236" y="3112"/>
      <point x="2547" y="2752"/>
      <point x="2547" y="2416" type="curve" smooth="yes"/>
      <point x="2547" y="2217.5"/>
      <point x="2412.5" y="2095.5"/>
      <point x="2254.5" y="2095.5" type="curve" smooth="yes"/>
      <point x="2111.5" y="2095.5"/>
      <point x="1950" y="2191"/>
      <point x="1950" y="2385.5" type="curve" smooth="yes"/>
      <point x="1950" y="2560"/>
      <point x="2096.5" y="2672.5"/>
      <point x="2245.5" y="2672.5" type="curve" smooth="yes"/>
      <point x="2399.5" y="2672.5"/>
      <point x="2484.5" y="2559.5"/>
      <point x="2517" y="2501.5" type="curve"/>
      <point x="2482" y="2780.5"/>
      <point x="2196.5" y="3091"/>
      <point x="1616" y="3091" type="curve" smooth="yes"/>
      <point x="1118" y="3091"/>
      <point x="1020" y="2669.5"/>
      <point x="1020" y="2345" type="curve" smooth="yes"/>
      <point x="1020" y="1939"/>
      <point x="1250" y="1710.5"/>
      <point x="1250" y="1382" type="curve" smooth="yes"/>
      <point x="1250" y="634"/>
      <point x="254" y="624"/>
      <point x="308" y="-82" type="curve"/>
      <point x="294" y="-82" type="line"/>
      <point x="216" y="488"/>
      <point x="775" y="808"/>
      <point x="775" y="1070" type="curve" smooth="yes"/>
      <point x="775" y="1536"/>
      <point x="443" y="1780"/>
    </contour>
  </outline>
</glyph>
<glyph name="section" format="2">
  <advance width="1951"/>
  <unicode hex="00A7"/>
  <outline>
    <contour>
      <point x="553" y="2669" type="curve" smooth="yes"/>
      <point x="553" y="2214"/>
      <point x="1792" y="2213"/>
      <point x="1792" y="1587" type="curve" smooth="yes"/>
      <point x="1792" y="1292"/>
      <point x="1563" y="1190"/>
      <point x="1362" y="1063" type="curve"/>
      <point x="1325" y="1075" type="line"/>
      <point x="1429" y="1155"/>
      <point x="1517" y="1202"/>
      <point x="1517" y="1333" type="curve" smooth="yes"/>
      <point x="1517" y="1787"/>
      <point x="274" y="1703"/>
      <point x="274" y="2449" type="curve" smooth="yes"/>
      <point x="274" y="2875"/>
      <point x="632" y="3112"/>
      <point x="1022" y="3112" type="curve" smooth="yes"/>
      <point x="1362" y="3112"/>
      <point x="1775" y="2975"/>
      <point x="1775" y="2541" type="curve" smooth="yes"/>
      <point x="1775" y="2353"/>
      <point x="1653" y="2206"/>
      <point x="1468" y="2206" type="curve" smooth="yes"/>
      <point x="1305" y="2206"/>
      <point x="1186" y="2329"/>
      <point x="1186" y="2497" type="curve" smooth="yes"/>
      <point x="1186" y="2649"/>
      <point x="1322" y="2777"/>
      <point x="1481" y="2777" type="curve" smooth="yes"/>
      <point x="1582" y="2777"/>
      <point x="1661" y="2728"/>
      <point x="1698" y="2685" type="curve"/>
      <point x="1633" y="2935"/>
      <point x="1335" y="3066"/>
      <point x="1022" y="3066" type="curve" smooth="yes"/>
      <point x="787" y="3066"/>
      <point x="553" y="2886"/>
    </contour>
    <contour>
      <point x="1788" y="664" type="curve" smooth="yes"/>
      <point x="1788" y="238"/>
      <point x="1450" y="-40"/>
      <point x="938" y="-40" type="curve" smooth="yes"/>
      <point x="578" y="-40"/>
      <point x="122" y="102"/>
      <point x="122" y="537" type="curve" smooth="yes"/>
      <point x="122" y="725"/>
      <point x="245" y="872"/>
      <point x="430" y="872" type="curve" smooth="yes"/>
      <point x="593" y="872"/>
      <point x="713" y="750"/>
      <point x="713" y="582" type="curve" smooth="yes"/>
      <point x="713" y="430"/>
      <point x="579" y="309"/>
      <point x="420" y="309" type="curve" smooth="yes"/>
      <point x="299" y="309"/>
      <point x="221" y="377"/>
      <point x="197" y="420" type="curve"/>
      <point x="253" y="144"/>
      <point x="605" y="6"/>
      <point x="938" y="6" type="curve" smooth="yes"/>
      <point x="1319" y="6"/>
      <point x="1479" y="237"/>
      <point x="1479" y="413" type="curve" smooth="yes"/>
      <point x="1479" y="868"/>
      <point x="197" y="828"/>
      <point x="197" y="1434" type="curve" smooth="yes"/>
      <point x="197" y="1749"/>
      <point x="438" y="1922"/>
      <point x="598" y="2028" type="curve"/>
      <point x="643" y="2028" type="line"/>
      <point x="588" y="1978"/>
      <point x="498" y="1880"/>
      <point x="498" y="1749" type="curve" smooth="yes"/>
      <point x="498" y="1295"/>
      <point x="1788" y="1410"/>
    </contour>
  </outline>
</glyph>
<glyph name="guillemotleft" format="2">
  <advance width="2907"/>
  <unicode hex="00AB"/>
  <outline>
    <contour>
      <point x="1888.5" y="1590" type="line"/>
      <point x="2667" y="598" type="line"/>
      <point x="2661.5" y="594" type="line"/>
      <point x="1250" y="1546" type="line"/>
      <point x="1250" y="1628" type="line"/>
      <point x="2661.5" y="2580" type="line"/>
      <point x="2667" y="2576" type="line"/>
    </contour>
    <contour>
      <point x="720.5" y="1590" type="line"/>
      <point x="1519.5" y="598" type="line"/>
      <point x="1515.5" y="594" type="line"/>
      <point x="102" y="1546" type="line"/>
      <point x="102" y="1628" type="line"/>
      <point x="1515.5" y="2580" type="line"/>
      <point x="1519.5" y="2576" type="line"/>
    </contour>
  </outline>
</glyph>
<glyph name="logicalnot" format="2">
  <advance width="3888"/>
  <unicode hex="00AC"/>
  <outline>
    <contour>
      <point x="3384" y="4896" type="line"/>
      <point x="480" y="4896" type="line"/>
      <point x="480" y="4920" type="line"/>
      <point x="3408" y="4920" type="line"/>
      <point x="3408" y="3304" type="line"/>
      <point x="3384" y="3304" type="line"/>
    </contour>
  </outline>
</glyph>
<glyph name="registered" format="2">
  <advance width="6960"/>
  <unicode hex="00AE"/>
  <outline>
    <contour>
      <point x="400" y="3000" type="curve" smooth="yes"/>
      <point x="400" y="4704"/>
      <point x="1776" y="6080"/>
      <point x="3480" y="6080" type="curve" smooth="yes"/>
      <point x="5184" y="6080"/>
      <point x="6560" y="4704"/>
      <point x="6560" y="3000" type="curve" smooth="yes"/>
      <point x="6560" y="1296"/>
      <point x="5184" y="-80"/>
      <point x="3480" y="-80" type="curve" smooth="yes"/>
      <point x="1776" y="-80"/>
      <point x="400" y="1296"/>
    </contour>
    <contour>
      <point x="424" y="3000" type="curve" smooth="yes"/>
      <point x="424" y="1312"/>
      <point x="1792" y="-56"/>
      <point x="3480" y="-56" type="curve" smooth="yes"/>
      <point x="5168" y="-56"/>
      <point x="6536" y="1312"/>
      <point x="6536" y="3000" type="curve" smooth="yes"/>
      <point x="6536" y="4688"/>
      <point x="5168" y="6056"/>
      <point x="3480" y="6056" type="curve" smooth="yes"/>
      <point x="1792" y="6056"/>
      <point x="424" y="4688"/>
    </contour>
    <component base="R" xScale="0.6" yScale="0.6" xOffset="1784" yOffset="1184"/>
  </outline>
</glyph>
<glyph name="degree" format="2">
  <advance width="1310"/>
  <unicode hex="00B0"/>
  <outline>
    <contour>
      <point x="164" y="2786" type="curve" smooth="yes"/>
      <point x="164" y="3056"/>
      <point x="386" y="3276"/>
      <point x="656" y="3276" type="curve" smooth="yes"/>
      <point x="926" y="3276"/>
      <point x="1146" y="3056"/>
      <point x="1146" y="2786" type="curve" smooth="yes"/>
      <point x="1146" y="2516"/>
      <point x="926" y="2294"/>
      <point x="656" y="2294" type="curve" smooth="yes"/>
      <point x="386" y="2294"/>
      <point x="164" y="2516"/>
    </contour>
    <contour>
      <point x="254" y="2786" type="curve" smooth="yes"/>
      <point x="254" y="2556"/>
      <point x="426" y="2384"/>
      <point x="656" y="2384" type="curve" smooth="yes"/>
      <point x="886" y="2384"/>
      <point x="1056" y="2556"/>
      <point x="1056" y="2786" type="curve" smooth="yes"/>
      <point x="1056" y="3016"/>
      <point x="886" y="3186"/>
      <point x="656" y="3186" type="curve" smooth="yes"/>
      <point x="426" y="3186"/>
      <point x="254" y="3016"/>
    </contour>
  </outline>
</glyph>
<glyph name="mu" format="2">
  <advance width="2338"/>
  <unicode hex="00B5"/>
  <outline>
    <contour>
      <point x="1036" y="-504" type="curve" smooth="yes"/>
      <point x="1172" y="-504"/>
      <point x="1278" y="-622"/>
      <point x="1278" y="-778" type="curve" smooth="yes"/>
      <point x="1278" y="-938"/>
      <point x="1193" y="-1064"/>
      <point x="893" y="-1064" type="curve" smooth="yes"/>
      <point x="607" y="-1064"/>
      <point x="360" y="-864"/>
      <point x="360" y="-496" type="curve" smooth="yes"/>
      <point x="360" y="1314" type="line"/>
      <point x="370" y="1314" type="line"/>
      <point x="370" y="-496" type="line" smooth="yes"/>
      <point x="370" y="-856"/>
      <point x="619" y="-1090"/>
      <point x="979" y="-1044" type="curve"/>
      <point x="979" y="-1044" type="line"/>
      <point x="881" y="-1008"/>
      <point x="790" y="-914"/>
      <point x="790" y="-762" type="curve" smooth="yes"/>
      <point x="790" y="-626"/>
      <point x="900" y="-504"/>
    </contour>
    <component base="u"/>
  </outline>
</glyph>
<glyph name="cedilla" format="2">
  <advance width="2252"/>
  <unicode hex="00B8"/>
  <outline>
    <contour>
      <point x="1307" y="-574" type="curve" smooth="yes"/>
      <point x="1307" y="-356"/>
      <point x="1123.5" y="-324"/>
      <point x="888" y="-324" type="curve"/>
      <point x="1258" y="168" type="line"/>
      <point x="1274" y="168" type="line"/>
      <point x="1028" y="-160" type="line"/>
      <point x="1372.5" y="-172"/>
      <point x="1679" y="-262"/>
      <point x="1679" y="-492" type="curve" smooth="yes"/>
      <point x="1679" y="-696"/>
      <point x="1483" y="-849.5"/>
      <point x="925.5" y="-849.5" type="curve"/>
      <point x="925.5" y="-837" type="line"/>
      <point x="1167.5" y="-837"/>
      <point x="1307" y="-724"/>
    </contour>
  </outline>
</glyph>
<glyph name="AE" format="2">
  <advance width="4281"/>
  <unicode hex="00C6"/>
  <outline>
    <contour>
      <point x="2149" y="3072" type="line"/>
      <point x="2166" y="3072" type="line"/>
      <point x="453" y="0" type="line"/>
      <point x="436" y="0" type="line"/>
    </contour>
    <contour>
      <point x="62" y="13" type="line"/>
      <point x="962" y="13" type="line"/>
      <point x="962" y="0" type="line"/>
      <point x="62" y="0" type="line"/>
    </contour>
    <contour>
      <point x="1008" y="1010" type="line"/>
      <point x="2192" y="1010" type="line"/>
      <point x="2192" y="997" type="line"/>
      <point x="1007" y="997" type="line"/>
    </contour>
    <contour>
      <point x="2150" y="3072" type="line"/>
      <point x="2786" y="3072" type="line"/>
      <point x="2786" y="0" type="line"/>
      <point x="2150" y="0" type="line"/>
    </contour>
    <contour>
      <point x="2150" y="3072" type="line"/>
      <point x="4118" y="3072" type="line"/>
      <point x="4118" y="2232" type="line"/>
      <point x="4105" y="2232" type="line"/>
      <point x="4044" y="2670"/>
      <point x="3736" y="3059"/>
      <point x="3277" y="3059" type="curve" smooth="yes"/>
      <point x="2150" y="3059" type="line"/>
    </contour>
    <contour>
      <point x="4160" y="0" type="line"/>
      <point x="1782" y="0" type="line"/>
      <point x="1782" y="13" type="line"/>
      <point x="3235" y="13" type="line" smooth="yes"/>
      <point x="3776" y="13"/>
      <point x="4085" y="402"/>
      <point x="4146" y="922" type="curve"/>
      <point x="4160" y="922" type="line"/>
    </contour>
    <contour>
      <point x="3471" y="1077" type="line"/>
      <point x="3410" y="1351"/>
      <point x="3163" y="1583"/>
      <point x="2929" y="1583" type="curve" smooth="yes"/>
      <point x="2683" y="1583" type="line"/>
      <point x="2683" y="1596" type="line"/>
      <point x="2929" y="1596" type="line" smooth="yes"/>
      <point x="3163" y="1596"/>
      <point x="3410" y="1807"/>
      <point x="3471" y="2081" type="curve"/>
      <point x="3484" y="2081" type="line"/>
      <point x="3484" y="1077" type="line"/>
    </contour>
  </outline>
</glyph>
<glyph name="Thorn" format="2">
  <advance width="2744"/>
  <unicode hex="00DE"/>
  <outline>
    <contour>
      <point x="430" y="3072" type="line"/>
      <point x="1065" y="3072" type="line"/>
      <point x="1065" y="0" type="line"/>
      <point x="430" y="0" type="line"/>
    </contour>
    <contour>
      <point x="62" y="12" type="line"/>
      <point x="1434" y="12" type="line"/>
      <point x="1434" y="0" type="line"/>
      <point x="62" y="0" type="line"/>
    </contour>
    <contour>
      <point x="62" y="3072" type="line"/>
      <point x="1434" y="3072" type="line"/>
      <point x="1434" y="3060" type="line"/>
      <point x="62" y="3060" type="line"/>
    </contour>
    <contour>
      <point x="1516" y="738" type="curve" smooth="yes"/>
      <point x="983" y="738" type="line"/>
      <point x="983" y="750" type="line"/>
      <point x="1372" y="750" type="line" smooth="yes"/>
      <point x="1766" y="750"/>
      <point x="1905" y="1234"/>
      <point x="1905" y="1598" type="curve" smooth="yes"/>
      <point x="1905" y="1962"/>
      <point x="1766" y="2446"/>
      <point x="1372" y="2446" type="curve" smooth="yes"/>
      <point x="983" y="2446" type="line"/>
      <point x="983" y="2458" type="line"/>
      <point x="1516" y="2458" type="line" smooth="yes"/>
      <point x="2258" y="2458"/>
      <point x="2601" y="2130"/>
      <point x="2601" y="1598" type="curve" smooth="yes"/>
      <point x="2601" y="1066"/>
      <point x="2258" y="738"/>
    </contour>
  </outline>
</glyph>
<glyph name="germandbls" format="2">
  <advance width="2972"/>
  <unicode hex="00DF"/>
  <outline>
    <contour>
      <point x="1527" y="1654" type="curve"/>
      <point x="1527" y="1662" type="line"/>
      <point x="2014" y="1662"/>
      <point x="2149.5" y="2076"/>
      <point x="2149.5" y="2338" type="curve" smooth="yes"/>
      <point x="2149.5" y="2632"/>
      <point x="2026" y="3099"/>
      <point x="1610" y="3099" type="curve" smooth="yes"/>
      <point x="1082.5" y="3099"/>
      <point x="921" y="2552"/>
      <point x="921" y="1970" type="curve" smooth="yes"/>
      <point x="921" y="0" type="line"/>
      <point x="430" y="0" type="line"/>
      <point x="430" y="2012" type="line" smooth="yes"/>
      <point x="430" y="2740.5"/>
      <point x="952" y="3112"/>
      <point x="1620" y="3112" type="curve" smooth="yes"/>
      <point x="2206" y="3112"/>
      <point x="2686.5" y="2791"/>
      <point x="2686.5" y="2380" type="curve" smooth="yes"/>
      <point x="2686.5" y="1949.5"/>
      <point x="2351" y="1654"/>
    </contour>
    <contour>
      <point x="62" y="12" type="line"/>
      <point x="1290.5" y="12" type="line"/>
      <point x="1290.5" y="0" type="line"/>
      <point x="62" y="0" type="line"/>
    </contour>
    <contour>
      <point x="2810" y="686.5" type="curve" smooth="yes"/>
      <point x="2810" y="235.5"/>
      <point x="2395" y="-40"/>
      <point x="1940" y="-40" type="curve" smooth="yes"/>
      <point x="1609" y="-40"/>
      <point x="1354.5" y="202"/>
      <point x="1354.5" y="598.5" type="curve" smooth="yes"/>
      <point x="1354.5" y="797"/>
      <point x="1493.5" y="905.5"/>
      <point x="1658" y="905.5" type="curve" smooth="yes"/>
      <point x="1800.5" y="905.5"/>
      <point x="1931" y="813.5"/>
      <point x="1931" y="635" type="curve" smooth="yes"/>
      <point x="1931" y="472.5"/>
      <point x="1784.5" y="368"/>
      <point x="1646" y="368" type="curve" smooth="yes"/>
      <point x="1504.5" y="368"/>
      <point x="1395.5" y="465.5"/>
      <point x="1369.5" y="576" type="curve"/>
      <point x="1380.5" y="203.5"/>
      <point x="1625.5" y="-19"/>
      <point x="1898" y="-19" type="curve" smooth="yes"/>
      <point x="2211.5" y="-19"/>
      <point x="2273.5" y="394"/>
      <point x="2273.5" y="656" type="curve" smooth="yes"/>
      <point x="2273.5" y="1042"/>
      <point x="2178" y="1654"/>
      <point x="1527" y="1654" type="curve"/>
      <point x="1527" y="1662" type="line"/>
      <point x="2515" y="1662"/>
      <point x="2810" y="1218.5"/>
    </contour>
  </outline>
</glyph>
<glyph name="ae" format="2">
  <advance width="3411"/>
  <unicode hex="00E6"/>
  <outline>
    <contour>
      <point x="286" y="1479" type="curve" smooth="yes"/>
      <point x="286" y="1743"/>
      <point x="644" y="1916"/>
      <point x="1057" y="1916" type="curve" smooth="yes"/>
      <point x="1589" y="1916"/>
      <point x="1807" y="1623"/>
      <point x="1807" y="1250" type="curve"/>
      <point x="1786" y="742" type="line"/>
      <point x="1786" y="234"/>
      <point x="1377" y="-40"/>
      <point x="902" y="-40" type="curve" smooth="yes"/>
      <point x="455" y="-40"/>
      <point x="144" y="117"/>
      <point x="144" y="462" type="curve" smooth="yes"/>
      <point x="144" y="806"/>
      <point x="458" y="1052"/>
      <point x="1040" y="1052" type="curve" smooth="yes"/>
      <point x="1671" y="1052" type="line"/>
      <point x="1671" y="1038" type="line"/>
      <point x="1184" y="1038" type="line" smooth="yes"/>
      <point x="934" y="1038"/>
      <point x="766" y="788"/>
      <point x="766" y="493" type="curve" smooth="yes"/>
      <point x="766" y="219"/>
      <point x="856" y="-20"/>
      <point x="1020" y="-20" type="curve" smooth="yes"/>
      <point x="1192" y="-20"/>
      <point x="1335" y="266"/>
      <point x="1335" y="639" type="curve" smooth="yes"/>
      <point x="1335" y="1250" type="line" smooth="yes"/>
      <point x="1335" y="1524"/>
      <point x="1276" y="1893"/>
      <point x="948" y="1893" type="curve" smooth="yes"/>
      <point x="740" y="1893"/>
      <point x="510" y="1805"/>
      <point x="411" y="1703" type="curve"/>
      <point x="699" y="1840"/>
      <point x="946" y="1680"/>
      <point x="946" y="1487" type="curve" smooth="yes"/>
      <point x="946" y="1303"/>
      <point x="766" y="1192"/>
      <point x="602" y="1192" type="curve" smooth="yes"/>
      <point x="418" y="1192"/>
      <point x="286" y="1311"/>
    </contour>
    <contour>
      <point x="2697" y="1057" type="line"/>
      <point x="2693" y="1434"/>
      <point x="2668" y="1911"/>
      <point x="2406" y="1911" type="curve" smooth="yes"/>
      <point x="2123" y="1911"/>
      <point x="2048" y="1449"/>
      <point x="2048" y="983" type="curve" smooth="yes"/>
      <point x="2048" y="517"/>
      <point x="2130" y="-10"/>
      <point x="2516" y="-10" type="curve" smooth="yes"/>
      <point x="2914" y="-10"/>
      <point x="3192" y="241"/>
      <point x="3296" y="586" type="curve"/>
      <point x="3309" y="586" type="line"/>
      <point x="3203" y="230"/>
      <point x="2914" y="-40"/>
      <point x="2419" y="-40" type="curve" smooth="yes"/>
      <point x="1903" y="-40"/>
      <point x="1536" y="307"/>
      <point x="1536" y="942" type="curve" smooth="yes"/>
      <point x="1536" y="1577"/>
      <point x="1890" y="1926"/>
      <point x="2406" y="1926" type="curve" smooth="yes"/>
      <point x="3016" y="1926"/>
      <point x="3305" y="1489"/>
      <point x="3305" y="1043" type="curve"/>
      <point x="1828" y="1043" type="line"/>
      <point x="1828" y="1057" type="line"/>
    </contour>
  </outline>
</glyph>
<glyph name="thorn" format="2">
  <advance width="2553"/>
  <unicode hex="00FE"/>
  <outline>
    <contour>
      <point x="911" y="942" type="curve" smooth="yes"/>
      <point x="911" y="1562"/>
      <point x="1142" y="1922"/>
      <point x="1563" y="1922" type="curve" smooth="yes"/>
      <point x="2009" y="1922"/>
      <point x="2430" y="1556"/>
      <point x="2430" y="942" type="curve" smooth="yes"/>
      <point x="2430" y="328"/>
      <point x="2009" y="-40"/>
      <point x="1563" y="-40" type="curve" smooth="yes"/>
      <point x="1144" y="-40"/>
      <point x="911" y="322"/>
    </contour>
    <contour>
      <point x="922" y="942" type="curve" smooth="yes"/>
      <point x="922" y="317"/>
      <point x="1178" y="11"/>
      <point x="1439" y="11" type="curve" smooth="yes"/>
      <point x="1680" y="11"/>
      <point x="1776" y="354"/>
      <point x="1776" y="942" type="curve" smooth="yes"/>
      <point x="1776" y="1530"/>
      <point x="1680" y="1869"/>
      <point x="1439" y="1869" type="curve" smooth="yes"/>
      <point x="1178" y="1869"/>
      <point x="922" y="1567"/>
    </contour>
    <contour>
      <point x="64" y="-1011" type="line"/>
      <point x="1210" y="-1011" type="line"/>
      <point x="1210" y="-1024" type="line"/>
      <point x="64" y="-1024" type="line"/>
    </contour>
    <contour>
      <point x="350" y="3059" type="line"/>
      <point x="64" y="3059" type="line"/>
      <point x="64" y="3072" type="line"/>
      <point x="922" y="3072" type="line"/>
      <point x="922" y="-1024" type="line"/>
      <point x="350" y="-1024" type="line"/>
    </contour>
  </outline>
</glyph>
<glyph name="dotlessi" format="2">
  <advance width="1312"/>
  <unicode hex="0131"/>
  <outline>
    <contour>
      <point x="84" y="13" type="line"/>
      <point x="1230" y="13" type="line"/>
      <point x="1230" y="0" type="line"/>
      <point x="84" y="0" type="line"/>
    </contour>
    <contour>
      <point x="370" y="1871" type="line"/>
      <point x="84" y="1871" type="line"/>
      <point x="84" y="1884" type="line"/>
      <point x="944" y="1884" type="line"/>
      <point x="944" y="0" type="line"/>
      <point x="370" y="0" type="line"/>
    </contour>
  </outline>
</glyph>
<glyph name="kgreenlandic" format="2">
  <advance width="2626"/>
  <unicode hex="0138"/>
  <outline>
    <contour>
      <point x="2430" y="0" type="line"/>
      <point x="1722" y="0" type="line"/>
      <point x="910" y="1090" type="line"/>
      <point x="2025" y="1884" type="line"/>
      <point x="2043" y="1884" type="line"/>
      <point x="1352" y="1379" type="line"/>
    </contour>
    <contour>
      <point x="1430" y="13" type="line"/>
      <point x="2585" y="13" type="line"/>
      <point x="2585" y="0" type="line"/>
      <point x="1430" y="0" type="line"/>
    </contour>
    <contour>
      <point x="2385" y="1871" type="line"/>
      <point x="1471" y="1871" type="line"/>
      <point x="1471" y="1884" type="line"/>
      <point x="2385" y="1884" type="line"/>
    </contour>
    <contour>
      <point x="83" y="13" type="line"/>
      <point x="1250" y="13" type="line"/>
      <point x="1250" y="0" type="line"/>
      <point x="83" y="0" type="line"/>
    </contour>
    <contour>
      <point x="452" y="1871" type="line"/>
      <point x="83" y="1871" type="line"/>
      <point x="83" y="1884" type="line"/>
      <point x="1025" y="1884" type="line"/>
      <point x="1025" y="0" type="line"/>
      <point x="452" y="0" type="line"/>
    </contour>
  </outline>
</glyph>
<glyph name="Lslash" format="2">
  <advance width="2518"/>
  <unicode hex="0141"/>
  <outline>
    <contour>
      <point x="62" y="1474" type="line"/>
      <point x="1678" y="2376" type="line"/>
      <point x="1678" y="2361" type="line"/>
      <point x="62" y="1459" type="line"/>
    </contour>
    <component base="L"/>
  </outline>
</glyph>
<glyph name="lslash" format="2">
  <advance width="340"/>
  <unicode hex="0142"/>
  <outline>
    <contour>
      <point x="10" y="380" type="line"/>
      <point x="345" y="580" type="line"/>
      <point x="345" y="577" type="line"/>
      <point x="10" y="377" type="line"/>
    </contour>
    <component base="l"/>
  </outline>
</glyph>
<glyph name="OE" format="2">
  <advance width="4066"/>
  <unicode hex="0152"/>
  <outline>
    <contour>
      <point x="1649" y="3059" type="move"/>
    </contour>
    <contour>
      <point x="880" y="1536" type="curve" smooth="yes"/>
      <point x="880" y="729"/>
      <point x="1079" y="13"/>
      <point x="1649" y="13" type="curve"/>
      <point x="1566" y="0" type="line"/>
      <point x="734" y="0"/>
      <point x="164" y="622"/>
      <point x="164" y="1536" type="curve" smooth="yes"/>
      <point x="164" y="2450"/>
      <point x="734" y="3072"/>
      <point x="1566" y="3072" type="curve"/>
      <point x="1649" y="3059" type="line"/>
      <point x="1079" y="3059"/>
      <point x="880" y="2343"/>
    </contour>
    <component base="E" xOffset="1494"/>
  </outline>
</glyph>
<glyph name="uni0237" format="2">
  <advance width="1334"/>
  <unicode hex="0237"/>
  <outline>
    <contour>
      <point x="1024" y="1884" type="line"/>
      <point x="1024" y="-50" type="line" smooth="yes"/>
      <point x="1024" y="-586"/>
      <point x="708" y="-1064"/>
      <point x="135" y="-1064" type="curve" smooth="yes"/>
      <point x="-238" y="-1064"/>
      <point x="-492" y="-846"/>
      <point x="-492" y="-575" type="curve" smooth="yes"/>
      <point x="-492" y="-368"/>
      <point x="-334" y="-241"/>
      <point x="-156" y="-241" type="curve" smooth="yes"/>
      <point x="8" y="-241"/>
      <point x="176" y="-340"/>
      <point x="176" y="-545" type="curve" smooth="yes"/>
      <point x="176" y="-740"/>
      <point x="37" y="-857"/>
      <point x="-174" y="-857" type="curve" smooth="yes"/>
      <point x="-342" y="-857"/>
      <point x="-451" y="-744"/>
      <point x="-471" y="-627" type="curve"/>
      <point x="-463" y="-840"/>
      <point x="-229" y="-1044"/>
      <point x="84" y="-1044" type="curve" smooth="yes"/>
      <point x="514" y="-1044"/>
      <point x="441" y="-432"/>
      <point x="441" y="88" type="curve" smooth="yes"/>
      <point x="451" y="1872" type="line"/>
      <point x="82" y="1872" type="line"/>
      <point x="82" y="1884" type="line"/>
    </contour>
  </outline>
</glyph>
<glyph name="ring" format="2">
  <advance width="1310"/>
  <unicode hex="02DA"/>
  <outline>
    <contour>
      <point x="245" y="2786" type="curve" smooth="yes"/>
      <point x="245" y="2994"/>
      <point x="407" y="3154"/>
      <point x="656" y="3154" type="curve" smooth="yes"/>
      <point x="905" y="3154"/>
      <point x="1065" y="2994"/>
      <point x="1065" y="2786" type="curve" smooth="yes"/>
      <point x="1065" y="2578"/>
      <point x="905" y="2416"/>
      <point x="656" y="2416" type="curve" smooth="yes"/>
      <point x="407" y="2416"/>
      <point x="245" y="2578"/>
    </contour>
    <contour>
      <point x="491" y="2786" type="curve" smooth="yes"/>
      <point x="491" y="2575"/>
      <point x="526" y="2429"/>
      <point x="656" y="2429" type="curve" smooth="yes"/>
      <point x="786" y="2429"/>
      <point x="819" y="2575"/>
      <point x="819" y="2786" type="curve" smooth="yes"/>
      <point x="819" y="2997"/>
      <point x="786" y="3141"/>
      <point x="656" y="3141" type="curve" smooth="yes"/>
      <point x="526" y="3141"/>
      <point x="491" y="2997"/>
    </contour>
  </outline>
</glyph>
<glyph name="ogonek" format="2">
  <advance width="2252"/>
  <unicode hex="02DB"/>
  <outline>
    <contour>
      <point x="1641" y="-503" type="line"/>
      <point x="1579" y="-617"/>
      <point x="1480" y="-803"/>
      <point x="1128" y="-803" type="curve" smooth="yes"/>
      <point x="858" y="-803"/>
      <point x="625" y="-697"/>
      <point x="625" y="-451" type="curve" smooth="yes"/>
      <point x="625" y="-123"/>
      <point x="1027" y="85"/>
      <point x="1338" y="177" type="curve"/>
      <point x="1344" y="166" type="line"/>
      <point x="1258" y="117"/>
      <point x="1169" y="-70"/>
      <point x="1169" y="-347" type="curve" smooth="yes"/>
      <point x="1169" y="-579"/>
      <point x="1266" y="-709"/>
      <point x="1385" y="-709" type="curve" smooth="yes"/>
      <point x="1503" y="-709"/>
      <point x="1565" y="-617"/>
      <point x="1634" y="-497" type="curve"/>
    </contour>
  </outline>
</glyph>
<glyph name="tilde" format="2">
  <advance width="3584"/>
  <unicode hex="02DC"/>
  <outline>
    <contour>
      <point x="944" y="5232" type="curve" smooth="yes"/>
      <point x="640" y="5232"/>
      <point x="424" y="5056"/>
      <point x="424" y="4760" type="curve"/>
      <point x="400" y="4760" type="line"/>
      <point x="400" y="5440"/>
      <point x="680" y="5936"/>
      <point x="1192" y="5936" type="curve" smooth="yes"/>
      <point x="1832" y="5936"/>
      <point x="2112" y="5304"/>
      <point x="2640" y="5304" type="curve" smooth="yes"/>
      <point x="2976" y="5304"/>
      <point x="3160" y="5480"/>
      <point x="3160" y="5776" type="curve"/>
      <point x="3184" y="5776" type="line"/>
      <point x="3184" y="5016"/>
      <point x="3064" y="4600"/>
      <point x="2472" y="4600" type="curve" smooth="yes"/>
      <point x="1856" y="4600"/>
      <point x="1528" y="5232"/>
    </contour>
  </outline>
</glyph>
<glyph name="pi" format="2">
  <advance width="2583"/>
  <unicode hex="03C0"/>
  <outline>
    <contour>
      <point x="2441" y="422" type="line"/>
      <point x="2347" y="136"/>
      <point x="2195" y="-40"/>
      <point x="1896" y="-40" type="curve" smooth="yes"/>
      <point x="1622" y="-40"/>
      <point x="1418" y="78"/>
      <point x="1418" y="340" type="curve" smooth="yes"/>
      <point x="1418" y="1720" type="line"/>
      <point x="1991" y="1720" type="line"/>
      <point x="1991" y="315" type="line" smooth="yes"/>
      <point x="1991" y="233"/>
      <point x="2032" y="153"/>
      <point x="2151" y="153" type="curve" smooth="yes"/>
      <point x="2259" y="153"/>
      <point x="2349" y="223"/>
      <point x="2431" y="428" type="curve"/>
    </contour>
    <contour>
      <point x="508" y="-40" type="curve" smooth="yes"/>
      <point x="299" y="-40"/>
      <point x="164" y="74"/>
      <point x="164" y="238" type="curve" smooth="yes"/>
      <point x="164" y="619"/>
      <point x="807" y="438"/>
      <point x="807" y="1142" type="curve" smooth="yes"/>
      <point x="807" y="1844" type="line"/>
      <point x="1036" y="1844" type="line"/>
      <point x="1036" y="996" type="line" smooth="yes"/>
      <point x="1036" y="348"/>
      <point x="848" y="-40"/>
    </contour>
    <contour>
      <point x="2359" y="1884" type="line"/>
      <point x="2359" y="1311" type="line"/>
      <point x="180" y="1311" type="line"/>
      <point x="180" y="1003" type="line"/>
      <point x="168" y="1003" type="line"/>
      <point x="168" y="1884" type="line"/>
    </contour>
  </outline>
</glyph>
<glyph name="uni1E9E" format="2">
  <advance width="3464"/>
  <unicode hex="1E9E"/>
  <outline>
    <contour>
      <point x="62" y="12" type="line"/>
      <point x="1331" y="12" type="line"/>
      <point x="1331" y="0" type="line"/>
      <point x="62" y="0" type="line"/>
    </contour>
    <contour>
      <point x="2330.5" y="1653.5" type="line"/>
      <point x="2157.03" y="1675.51"/>
      <point x="1975.6" y="1692.68"/>
      <point x="1804" y="1700" type="curve"/>
      <point x="2797" y="2929.5" type="line"/>
      <point x="2666.5" y="2992"/>
      <point x="2399" y="3100"/>
      <point x="2029" y="3100" type="curve" smooth="yes"/>
      <point x="1276" y="3100"/>
      <point x="963" y="2501"/>
      <point x="963" y="1766" type="curve" smooth="yes"/>
      <point x="963" y="0" type="line"/>
      <point x="430" y="0" type="line"/>
      <point x="430" y="1806" type="line" smooth="yes"/>
      <point x="430" y="2658.5"/>
      <point x="1125.5" y="3112"/>
      <point x="2029" y="3112" type="curve" smooth="yes"/>
      <point x="2655" y="3112"/>
      <point x="3046" y="2843.5"/>
      <point x="3178.5" y="2697.5" type="curve"/>
    </contour>
    <contour>
      <point x="1346" y="564" type="curve"/>
      <point x="1366.5" y="265"/>
      <point x="1664" y="-12"/>
      <point x="2124.5" y="-12" type="curve" smooth="yes"/>
      <point x="2587" y="-12"/>
      <point x="2749" y="382"/>
      <point x="2749" y="798.5" type="curve" smooth="yes"/>
      <point x="2749" y="1133"/>
      <point x="2650.5" y="1688"/>
      <point x="1804" y="1688" type="curve"/>
      <point x="1804" y="1700" type="line"/>
      <point x="3026.5" y="1700"/>
      <point x="3302" y="1274"/>
      <point x="3302" y="803.5" type="curve" smooth="yes"/>
      <point x="3302" y="261"/>
      <point x="2825.5" y="-40"/>
      <point x="2227" y="-40" type="curve" smooth="yes"/>
      <point x="1614.5" y="-40"/>
      <point x="1331.5" y="294.5"/>
      <point x="1331.5" y="609" type="curve" smooth="yes"/>
      <point x="1331.5" y="807.5"/>
      <point x="1459.5" y="931.5"/>
      <point x="1634" y="931.5" type="curve" smooth="yes"/>
      <point x="1787" y="931.5"/>
      <point x="1905.5" y="824.5"/>
      <point x="1905.5" y="646" type="curve" smooth="yes"/>
      <point x="1905.5" y="483.5"/>
      <point x="1764.5" y="368"/>
      <point x="1615.5" y="368" type="curve" smooth="yes"/>
      <point x="1482" y="368"/>
      <point x="1373.5" y="473.5"/>
    </contour>
  </outline>
</glyph>
<glyph name="figuredash" format="2">
  <advance width="445"/>
  <unicode hex="2012"/>
  <outline>
    <contour>
      <point x="60" y="276" type="line"/>
      <point x="385" y="276" type="line"/>
      <point x="385" y="274" type="line"/>
      <point x="60" y="274" type="line"/>
    </contour>
  </outline>
</glyph>
<glyph name="uni2031" format="2">
  <advance width="16040"/>
  <unicode hex="2031"/>
  <outline>
    <contour>
      <point x="13480" y="1680" type="curve" smooth="yes"/>
      <point x="13480" y="592"/>
      <point x="13608" y="-56"/>
      <point x="14000" y="-56" type="curve" smooth="yes"/>
      <point x="14392" y="-56"/>
      <point x="14520" y="592"/>
      <point x="14520" y="1680" type="curve" smooth="yes"/>
      <point x="14520" y="2768"/>
      <point x="14392" y="3416"/>
      <point x="14000" y="3416" type="curve" smooth="yes"/>
      <point x="13608" y="3416"/>
      <point x="13480" y="2768"/>
    </contour>
    <contour>
      <point x="12240" y="1680" type="curve" smooth="yes"/>
      <point x="12240" y="2824"/>
      <point x="13096" y="3440"/>
      <point x="14000" y="3440" type="curve" smooth="yes"/>
      <point x="14904" y="3440"/>
      <point x="15760" y="2824"/>
      <point x="15760" y="1680" type="curve" smooth="yes"/>
      <point x="15760" y="536"/>
      <point x="14744" y="-80"/>
      <point x="14000" y="-80" type="curve" smooth="yes"/>
      <point x="13096" y="-80"/>
      <point x="12240" y="536"/>
    </contour>
    <contour>
      <point x="9520" y="1680" type="curve" smooth="yes"/>
      <point x="9520" y="592"/>
      <point x="9648" y="-56"/>
      <point x="10040" y="-56" type="curve" smooth="yes"/>
      <point x="10432" y="-56"/>
      <point x="10560" y="592"/>
      <point x="10560" y="1680" type="curve" smooth="yes"/>
      <point x="10560" y="2768"/>
      <point x="10432" y="3416"/>
      <point x="10040" y="3416" type="curve" smooth="yes"/>
      <point x="9648" y="3416"/>
      <point x="9520" y="2768"/>
    </contour>
    <contour>
      <point x="8280" y="1680" type="curve" smooth="yes"/>
      <point x="8280" y="2824"/>
      <point x="9136" y="3440"/>
      <point x="10040" y="3440" type="curve" smooth="yes"/>
      <point x="10944" y="3440"/>
      <point x="11800" y="2824"/>
      <point x="11800" y="1680" type="curve" smooth="yes"/>
      <point x="11800" y="536"/>
      <point x="10784" y="-80"/>
      <point x="10040" y="-80" type="curve" smooth="yes"/>
      <point x="9136" y="-80"/>
      <point x="8280" y="536"/>
    </contour>
    <contour>
      <point x="5600" y="1680" type="curve" smooth="yes"/>
      <point x="5600" y="592"/>
      <point x="5728" y="-56"/>
      <point x="6120" y="-56" type="curve" smooth="yes"/>
      <point x="6512" y="-56"/>
      <point x="6640" y="592"/>
      <point x="6640" y="1680" type="curve" smooth="yes"/>
      <point x="6640" y="2768"/>
      <point x="6512" y="3416"/>
      <point x="6120" y="3416" type="curve" smooth="yes"/>
      <point x="5728" y="3416"/>
      <point x="5600" y="2768"/>
    </contour>
    <contour>
      <point x="4360" y="1680" type="curve" smooth="yes"/>
      <point x="4360" y="2824"/>
      <point x="5216" y="3440"/>
      <point x="6120" y="3440" type="curve" smooth="yes"/>
      <point x="7024" y="3440"/>
      <point x="7880" y="2824"/>
      <point x="7880" y="1680" type="curve" smooth="yes"/>
      <point x="7880" y="536"/>
      <point x="6864" y="-80"/>
      <point x="6120" y="-80" type="curve" smooth="yes"/>
      <point x="5216" y="-80"/>
      <point x="4360" y="536"/>
    </contour>
    <contour>
      <point x="6176" y="6000" type="line"/>
      <point x="6200" y="6000" type="line"/>
      <point x="1984" y="0" type="line"/>
      <point x="1960" y="0" type="line"/>
    </contour>
    <contour>
      <point x="1520" y="4320" type="curve" smooth="yes"/>
      <point x="1520" y="3232"/>
      <point x="1648" y="2584"/>
      <point x="2040" y="2584" type="curve" smooth="yes"/>
      <point x="2432" y="2584"/>
      <point x="2560" y="3232"/>
      <point x="2560" y="4320" type="curve" smooth="yes"/>
      <point x="2560" y="5408"/>
      <point x="2432" y="6056"/>
      <point x="2040" y="6056" type="curve" smooth="yes"/>
      <point x="1648" y="6056"/>
      <point x="1520" y="5408"/>
    </contour>
    <contour>
      <point x="280" y="4320" type="curve" smooth="yes"/>
      <point x="280" y="5464"/>
      <point x="1136" y="6080"/>
      <point x="2040" y="6080" type="curve" smooth="yes"/>
      <point x="2944" y="6080"/>
      <point x="3800" y="5464"/>
      <point x="3800" y="4320" type="curve" smooth="yes"/>
      <point x="3800" y="3176"/>
      <point x="2784" y="2560"/>
      <point x="2040" y="2560" type="curve" smooth="yes"/>
      <point x="1136" y="2560"/>
      <point x="280" y="3176"/>
    </contour>
  </outline>
</glyph>
<glyph name="uni203D" format="2">
  <advance width="2579"/>
  <unicode hex="203D"/>
  <outline>
    <contour>
      <point x="1581.5" y="2054" type="curve" smooth="yes"/>
      <point x="1535.5" y="1660"/>
      <point x="1271.5" y="1209.5"/>
      <point x="1271.5" y="923.5" type="curve"/>
      <point x="1263.5" y="923.5" type="line"/>
      <point x="1263.5" y="1209.5"/>
      <point x="1082.5" y="1660"/>
      <point x="1036.5" y="2054" type="curve" smooth="yes"/>
      <point x="1032.5" y="2082"/>
      <point x="1032.5" y="2108"/>
      <point x="1032.5" y="2132" type="curve" smooth="yes"/>
      <point x="1032.5" y="2246"/>
      <point x="1096.5" y="2439.5"/>
      <point x="1309" y="2439.5" type="curve" smooth="yes"/>
      <point x="1521.5" y="2439.5"/>
      <point x="1585.5" y="2246"/>
      <point x="1585.5" y="2132" type="curve" smooth="yes"/>
      <point x="1585.5" y="2108"/>
      <point x="1585.5" y="2082"/>
    </contour>
    <contour>
      <point x="276" y="2246.5" type="curve" smooth="yes"/>
      <point x="276" y="2622.5"/>
      <point x="672" y="3112"/>
      <point x="1366.5" y="3112" type="curve" smooth="yes"/>
      <point x="1984.5" y="3112"/>
      <point x="2436.5" y="2794.5"/>
      <point x="2436.5" y="2252" type="curve" smooth="yes"/>
      <point x="2436.5" y="1739.5"/>
      <point x="1877" y="1372"/>
      <point x="1360.5" y="1372" type="curve"/>
      <point x="1360.5" y="1384" type="line"/>
      <point x="1706.5" y="1412.5"/>
      <point x="1982.5" y="1863"/>
      <point x="1982.5" y="2294" type="curve" smooth="yes"/>
      <point x="1982.5" y="2680"/>
      <point x="1718.5" y="3075"/>
      <point x="1272.5" y="3075" type="curve" smooth="yes"/>
      <point x="705" y="3075"/>
      <point x="319" y="2627"/>
      <point x="302.5" y="2312" type="curve"/>
      <point x="328.5" y="2398"/>
      <point x="418.5" y="2488"/>
      <point x="561" y="2488" type="curve" smooth="yes"/>
      <point x="710" y="2488"/>
      <point x="825.5" y="2366.5"/>
      <point x="825.5" y="2222.5" type="curve" smooth="yes"/>
      <point x="825.5" y="2028"/>
      <point x="673.5" y="1941.5"/>
      <point x="551" y="1941.5" type="curve" smooth="yes"/>
      <point x="408.5" y="1941.5"/>
      <point x="276" y="2048"/>
    </contour>
    <component base="period" xOffset="795.5"/>
  </outline>
</glyph>
<glyph name="Euro" format="2">
  <advance width="2938"/>
  <unicode hex="20AC"/>
  <outline>
    <contour>
      <point x="2699" y="2615" type="curve"/>
      <point x="2642.5" y="2809"/>
      <point x="2353.5" y="3093"/>
      <point x="1942" y="3093" type="curve" smooth="yes"/>
      <point x="1301" y="3093"/>
      <point x="1086" y="2289"/>
      <point x="1086" y="1536" type="curve" smooth="yes"/>
      <point x="1086" y="701"/>
      <point x="1355.5" y="-13"/>
      <point x="1853" y="-13" type="curve" smooth="yes"/>
      <point x="2273" y="-13"/>
      <point x="2591" y="337"/>
      <point x="2693" y="730" type="curve"/>
      <point x="2705" y="730" type="line"/>
      <point x="2599" y="332"/>
      <point x="2290.5" y="-40"/>
      <point x="1774" y="-40" type="curve" smooth="yes"/>
      <point x="1104.5" y="-40"/>
      <point x="481.5" y="594"/>
      <point x="481.5" y="1536" type="curve" smooth="yes"/>
      <point x="481.5" y="2396"/>
      <point x="1025.5" y="3112"/>
      <point x="1880" y="3112" type="curve" smooth="yes"/>
      <point x="2410.5" y="3112"/>
      <point x="2733.5" y="2746.5"/>
      <point x="2733.5" y="2503.5" type="curve" smooth="yes"/>
      <point x="2733.5" y="2305"/>
      <point x="2603" y="2198"/>
      <point x="2450" y="2198" type="curve" smooth="yes"/>
      <point x="2317" y="2198"/>
      <point x="2165" y="2283"/>
      <point x="2165" y="2477.5" type="curve" smooth="yes"/>
      <point x="2165" y="2652"/>
      <point x="2301" y="2754.5"/>
      <point x="2450" y="2754.5" type="curve" smooth="yes"/>
      <point x="2580.5" y="2754.5"/>
      <point x="2674.5" y="2666"/>
    </contour>
    <component base="equal" xOffset="-122" yOffset="-286"/>
  </outline>
</glyph>
<glyph name="uni2116" format="2">
  <advance width="4570"/>
  <unicode hex="2116"/>
  <outline>
    <contour>
      <point x="3420.5" y="2334" type="curve" smooth="yes"/>
      <point x="3420.5" y="1868"/>
      <point x="3512.5" y="1568"/>
      <point x="3734" y="1568" type="curve" smooth="yes"/>
      <point x="3955.5" y="1568"/>
      <point x="4047.5" y="1868"/>
      <point x="4047.5" y="2334" type="curve" smooth="yes"/>
      <point x="4047.5" y="2800"/>
      <point x="3955.5" y="3100"/>
      <point x="3734" y="3100" type="curve" smooth="yes"/>
      <point x="3512.5" y="3100"/>
      <point x="3420.5" y="2800"/>
    </contour>
    <contour>
      <point x="3011" y="2334" type="curve" smooth="yes"/>
      <point x="3011" y="2836"/>
      <point x="3310" y="3112"/>
      <point x="3734" y="3112" type="curve" smooth="yes"/>
      <point x="4158" y="3112"/>
      <point x="4457" y="2836"/>
      <point x="4457" y="2334" type="curve" smooth="yes"/>
      <point x="4457" y="1832"/>
      <point x="4158" y="1556"/>
      <point x="3734" y="1556" type="curve" smooth="yes"/>
      <point x="3310" y="1556"/>
      <point x="3011" y="1832"/>
    </contour>
    <component base="hyphen" xOffset="2996" yOffset="164"/>
    <component base="N"/>
  </outline>
</glyph>
<glyph name="uniFB00" format="2">
  <advance width="2866"/>
  <unicode hex="FB00"/>
  <outline>
    <contour>
      <point x="51" y="12" type="line"/>
      <point x="2735" y="12" type="line"/>
      <point x="2735" y="0" type="line"/>
      <point x="51" y="0" type="line"/>
    </contour>
    <contour>
      <point x="51" y="1884" type="line"/>
      <point x="2816" y="1884" type="line"/>
      <point x="2816" y="1872" type="line"/>
      <point x="51" y="1872" type="line"/>
    </contour>
    <contour>
      <point x="2048" y="2511" type="curve"/>
      <point x="2013" y="2695"/>
      <point x="1768" y="2894"/>
      <point x="1493" y="2894" type="curve" smooth="yes"/>
      <point x="1165" y="2894"/>
      <point x="972" y="2528"/>
      <point x="972" y="2008" type="curve" smooth="yes"/>
      <point x="972" y="0" type="line"/>
      <point x="420" y="0" type="line"/>
      <point x="420" y="1892" type="line" smooth="yes"/>
      <point x="420" y="2469"/>
      <point x="858" y="2908"/>
      <point x="1472" y="2908" type="curve" smooth="yes"/>
      <point x="1824" y="2908"/>
      <point x="2079" y="2654"/>
      <point x="2079" y="2421" type="curve" smooth="yes"/>
      <point x="2079" y="2212"/>
      <point x="1947" y="2085"/>
      <point x="1763" y="2085" type="curve" smooth="yes"/>
      <point x="1599" y="2085"/>
      <point x="1431" y="2192"/>
      <point x="1431" y="2393" type="curve" smooth="yes"/>
      <point x="1431" y="2594"/>
      <point x="1569" y="2705"/>
      <point x="1741" y="2705" type="curve" smooth="yes"/>
      <point x="1897" y="2705"/>
      <point x="2032" y="2564"/>
    </contour>
    <contour>
      <point x="3230" y="2730" type="curve"/>
      <point x="3202" y="2904"/>
      <point x="3021" y="3098"/>
      <point x="2711" y="3098" type="curve" smooth="yes"/>
      <point x="2383" y="3098"/>
      <point x="2253" y="2732"/>
      <point x="2253" y="2212" type="curve" smooth="yes"/>
      <point x="2253" y="0" type="line"/>
      <point x="1700" y="0" type="line"/>
      <point x="1700" y="2098" type="line" smooth="yes"/>
      <point x="1700" y="2675"/>
      <point x="2097" y="3112"/>
      <point x="2691" y="3112" type="curve" smooth="yes"/>
      <point x="3043" y="3112"/>
      <point x="3256" y="2879"/>
      <point x="3256" y="2646" type="curve" smooth="yes"/>
      <point x="3256" y="2437"/>
      <point x="3125" y="2310"/>
      <point x="2941" y="2310" type="curve" smooth="yes"/>
      <point x="2777" y="2310"/>
      <point x="2609" y="2416"/>
      <point x="2609" y="2617" type="curve" smooth="yes"/>
      <point x="2609" y="2818"/>
      <point x="2764" y="2931"/>
      <point x="2936" y="2931" type="curve" smooth="yes"/>
      <point x="3069" y="2931"/>
      <point x="3191" y="2842"/>
    </contour>
  </outline>
</glyph>
<glyph name="uniFB01" format="2">
  <advance width="627"/>
  <unicode hex="FB01"/>
  <outline>
    <contour>
      <point x="102" y="512" type="line" smooth="yes"/>
      <point x="102" y="658"/>
      <point x="205" y="760"/>
      <point x="380" y="760" type="curve" smooth="yes"/>
      <point x="486" y="760"/>
      <point x="542" y="703"/>
      <point x="542" y="641" type="curve" smooth="yes"/>
      <point x="542" y="590"/>
      <point x="511" y="559"/>
      <point x="466" y="559" type="curve" smooth="yes"/>
      <point x="425" y="559"/>
      <point x="384" y="585"/>
      <point x="384" y="633" type="curve" smooth="yes"/>
      <point x="384" y="681"/>
      <point x="422" y="710"/>
      <point x="464" y="710" type="curve" smooth="yes"/>
      <point x="500" y="710"/>
      <point x="527" y="690"/>
      <point x="536" y="658" type="curve"/>
      <point x="526" y="715"/>
      <point x="472" y="757"/>
      <point x="380" y="757" type="curve" smooth="yes"/>
      <point x="270" y="757"/>
      <point x="238" y="667"/>
      <point x="238" y="540" type="curve" smooth="yes"/>
      <point x="238" y="0" type="line"/>
      <point x="102" y="0" type="line"/>
    </contour>
    <contour>
      <point x="12" y="3" type="line"/>
      <point x="610" y="3" type="line"/>
      <point x="610" y="0" type="line"/>
      <point x="12" y="0" type="line"/>
    </contour>
    <contour>
      <point x="400" y="457" type="line"/>
      <point x="12" y="457" type="line"/>
      <point x="12" y="460" type="line"/>
      <point x="540" y="460" type="line"/>
      <point x="540" y="0" type="line"/>
      <point x="400" y="0" type="line"/>
    </contour>
  </outline>
</glyph>
<glyph name="uniFB02" format="2">
  <advance width="2816"/>
  <unicode hex="FB02"/>
  <outline>
    <contour>
      <point x="67" y="13" type="line"/>
      <point x="2731" y="13" type="line"/>
      <point x="2731" y="0" type="line"/>
      <point x="67" y="0" type="line"/>
    </contour>
    <contour>
      <point x="67" y="1884" type="line"/>
      <point x="1552" y="1884" type="line"/>
      <point x="1552" y="1871" type="line"/>
      <point x="67" y="1871" type="line"/>
    </contour>
    <contour>
      <point x="1828" y="2990" type="line"/>
      <point x="2402" y="3154" type="line"/>
      <point x="2402" y="0" type="line"/>
      <point x="1828" y="0" type="line"/>
    </contour>
    <contour>
      <point x="1993" y="2698" type="curve"/>
      <point x="1968" y="2886"/>
      <point x="1783" y="3096"/>
      <point x="1468" y="3096" type="curve" smooth="yes"/>
      <point x="1100" y="3096"/>
      <point x="988" y="2732"/>
      <point x="988" y="2212" type="curve" smooth="yes"/>
      <point x="988" y="0" type="line"/>
      <point x="436" y="0" type="line"/>
      <point x="436" y="2098" type="line" smooth="yes"/>
      <point x="436" y="2675"/>
      <point x="854" y="3112"/>
      <point x="1448" y="3112" type="curve" smooth="yes"/>
      <point x="1800" y="3112"/>
      <point x="2013" y="2880"/>
      <point x="2013" y="2626" type="curve" smooth="yes"/>
      <point x="2013" y="2417"/>
      <point x="1881" y="2290"/>
      <point x="1697" y="2290" type="curve" smooth="yes"/>
      <point x="1533" y="2290"/>
      <point x="1365" y="2389"/>
      <point x="1365" y="2594" type="curve" smooth="yes"/>
      <point x="1365" y="2799"/>
      <point x="1504" y="2912"/>
      <point x="1684" y="2912" type="curve" smooth="yes"/>
      <point x="1894" y="2912"/>
      <point x="1983" y="2710"/>
    </contour>
  </outline>
</glyph>
<glyph name="uniFB03" format="2">
  <advance width="930"/>
  <unicode hex="FB03"/>
  <outline>
    <contour>
      <point x="405" y="512" type="line" smooth="yes"/>
      <point x="405" y="658"/>
      <point x="507" y="760"/>
      <point x="682" y="760" type="curve" smooth="yes"/>
      <point x="788" y="760"/>
      <point x="845" y="703"/>
      <point x="845" y="641" type="curve" smooth="yes"/>
      <point x="845" y="590"/>
      <point x="813" y="559"/>
      <point x="768" y="559" type="curve" smooth="yes"/>
      <point x="727" y="559"/>
      <point x="687" y="585"/>
      <point x="687" y="633" type="curve" smooth="yes"/>
      <point x="687" y="681"/>
      <point x="723" y="710"/>
      <point x="765" y="710" type="curve" smooth="yes"/>
      <point x="807" y="710"/>
      <point x="833" y="686"/>
      <point x="839" y="658" type="curve"/>
      <point x="829" y="714"/>
      <point x="775" y="756"/>
      <point x="682" y="756" type="curve" smooth="yes"/>
      <point x="572" y="756"/>
      <point x="540" y="667"/>
      <point x="540" y="540" type="curve" smooth="yes"/>
      <point x="540" y="0" type="line"/>
      <point x="405" y="0" type="line"/>
    </contour>
    <contour>
      <point x="12" y="3" type="line"/>
      <point x="912" y="3" type="line"/>
      <point x="912" y="0" type="line"/>
      <point x="12" y="0" type="line"/>
    </contour>
    <contour>
      <point x="102" y="462" type="line" smooth="yes"/>
      <point x="102" y="602"/>
      <point x="210" y="710"/>
      <point x="360" y="710" type="curve" smooth="yes"/>
      <point x="446" y="710"/>
      <point x="508" y="648"/>
      <point x="508" y="591" type="curve" smooth="yes"/>
      <point x="508" y="540"/>
      <point x="475" y="509"/>
      <point x="430" y="509" type="curve" smooth="yes"/>
      <point x="390" y="509"/>
      <point x="350" y="535"/>
      <point x="350" y="584" type="curve" smooth="yes"/>
      <point x="350" y="633"/>
      <point x="383" y="660"/>
      <point x="425" y="660" type="curve" smooth="yes"/>
      <point x="463" y="660"/>
      <point x="491" y="635"/>
      <point x="495" y="622" type="curve"/>
      <point x="481" y="662"/>
      <point x="432" y="706"/>
      <point x="364" y="706" type="curve" smooth="yes"/>
      <point x="284" y="706"/>
      <point x="238" y="617"/>
      <point x="238" y="490" type="curve" smooth="yes"/>
      <point x="238" y="0" type="line"/>
      <point x="102" y="0" type="line"/>
    </contour>
    <contour>
      <point x="702" y="457" type="line"/>
      <point x="12" y="457" type="line"/>
      <point x="12" y="460" type="line"/>
      <point x="842" y="460" type="line"/>
      <point x="842" y="0" type="line"/>
      <point x="702" y="0" type="line"/>
    </contour>
  </outline>
</glyph>
<glyph name="uniFB04" format="2">
  <advance width="990"/>
  <unicode hex="FB04"/>
  <outline>
    <contour>
      <point x="12" y="3" type="line"/>
      <point x="975" y="3" type="line"/>
      <point x="975" y="0" type="line"/>
      <point x="12" y="0" type="line"/>
    </contour>
    <contour>
      <point x="12" y="460" type="line"/>
      <point x="688" y="460" type="line"/>
      <point x="688" y="457" type="line"/>
      <point x="12" y="457" type="line"/>
    </contour>
    <contour>
      <point x="755" y="730" type="line"/>
      <point x="895" y="770" type="line"/>
      <point x="895" y="0" type="line"/>
      <point x="755" y="0" type="line"/>
    </contour>
    <contour>
      <point x="496" y="622" type="curve"/>
      <point x="482" y="662"/>
      <point x="431" y="706"/>
      <point x="364" y="706" type="curve" smooth="yes"/>
      <point x="284" y="706"/>
      <point x="238" y="617"/>
      <point x="238" y="490" type="curve" smooth="yes"/>
      <point x="238" y="0" type="line"/>
      <point x="102" y="0" type="line"/>
      <point x="102" y="462" type="line" smooth="yes"/>
      <point x="102" y="602"/>
      <point x="210" y="710"/>
      <point x="360" y="710" type="curve" smooth="yes"/>
      <point x="446" y="710"/>
      <point x="508" y="648"/>
      <point x="508" y="591" type="curve" smooth="yes"/>
      <point x="508" y="540"/>
      <point x="475" y="509"/>
      <point x="430" y="509" type="curve" smooth="yes"/>
      <point x="390" y="509"/>
      <point x="350" y="535"/>
      <point x="350" y="584" type="curve" smooth="yes"/>
      <point x="350" y="633"/>
      <point x="383" y="660"/>
      <point x="425" y="660" type="curve" smooth="yes"/>
      <point x="458" y="660"/>
      <point x="492" y="635"/>
    </contour>
    <contour>
      <point x="794" y="662" type="curve"/>
      <point x="784" y="714"/>
      <point x="733" y="757"/>
      <point x="667" y="757" type="curve" smooth="yes"/>
      <point x="577" y="757"/>
      <point x="550" y="667"/>
      <point x="550" y="540" type="curve" smooth="yes"/>
      <point x="550" y="0" type="line"/>
      <point x="415" y="0" type="line"/>
      <point x="415" y="512" type="line" smooth="yes"/>
      <point x="415" y="653"/>
      <point x="517" y="760"/>
      <point x="662" y="760" type="curve" smooth="yes"/>
      <point x="748" y="760"/>
      <point x="800" y="703"/>
      <point x="800" y="641" type="curve" smooth="yes"/>
      <point x="800" y="590"/>
      <point x="768" y="559"/>
      <point x="723" y="559" type="curve" smooth="yes"/>
      <point x="683" y="559"/>
      <point x="642" y="583"/>
      <point x="642" y="633" type="curve" smooth="yes"/>
      <point x="642" y="683"/>
      <point x="676" y="710"/>
      <point x="720" y="710" type="curve" smooth="yes"/>
      <point x="772" y="710"/>
      <point x="793" y="662"/>
    </contour>
  </outline>
</glyph>
<glyph name="J.alt" format="2">
  <advance width="2593"/>
  <outline>
    <contour>
      <point x="977" y="3072" type="line"/>
      <point x="2533" y="3072" type="line"/>
      <point x="2533" y="3060" type="line"/>
      <point x="977" y="3060" type="line"/>
    </contour>
    <contour>
      <point x="1489" y="3072" type="line"/>
      <point x="2123" y="3072" type="line"/>
      <point x="2123" y="921" type="line"/>
      <point x="2000" y="347"/>
      <point x="1657" y="-81"/>
      <point x="936" y="-81" type="curve" smooth="yes"/>
      <point x="395" y="-81"/>
      <point x="72" y="308"/>
      <point x="72" y="676" type="curve" smooth="yes"/>
      <point x="72" y="991"/>
      <point x="285" y="1168"/>
      <point x="510" y="1168" type="curve" smooth="yes"/>
      <point x="715" y="1168"/>
      <point x="883" y="1031"/>
      <point x="883" y="792" type="curve" smooth="yes"/>
      <point x="883" y="587"/>
      <point x="712" y="419"/>
      <point x="492" y="419" type="curve" smooth="yes"/>
      <point x="288" y="419"/>
      <point x="135" y="518"/>
      <point x="94" y="639" type="curve"/>
      <point x="123" y="250"/>
      <point x="469" y="-61"/>
      <point x="895" y="-61" type="curve" smooth="yes"/>
      <point x="1329" y="-61"/>
      <point x="1489" y="327"/>
      <point x="1489" y="901" type="curve" smooth="yes"/>
    </contour>
  </outline>
</glyph>
<glyph name="R.alt" format="2">
  <advance width="2978"/>
  <outline>
    <contour>
      <point x="1503" y="1570" type="curve" smooth="yes"/>
      <point x="807" y="1570" type="line"/>
      <point x="807" y="1583" type="line"/>
      <point x="1401" y="1583" type="line" smooth="yes"/>
      <point x="1795" y="1583"/>
      <point x="1995" y="1826"/>
      <point x="1995" y="2313" type="curve" smooth="yes"/>
      <point x="1995" y="2800"/>
      <point x="1795" y="3059"/>
      <point x="1401" y="3059" type="curve" smooth="yes"/>
      <point x="70" y="3059" type="line"/>
      <point x="70" y="3072" type="line"/>
      <point x="1503" y="3072" type="line" smooth="yes"/>
      <point x="2183" y="3072"/>
      <point x="2650" y="2845"/>
      <point x="2650" y="2313" type="curve" smooth="yes"/>
      <point x="2650" y="1781"/>
      <point x="2224" y="1570"/>
    </contour>
    <contour>
      <point x="70" y="13" type="line"/>
      <point x="1524" y="13" type="line"/>
      <point x="1524" y="0" type="line"/>
      <point x="70" y="0" type="line"/>
    </contour>
    <contour>
      <point x="479" y="3072" type="line"/>
      <point x="1114" y="3072" type="line"/>
      <point x="1114" y="0" type="line"/>
      <point x="479" y="0" type="line"/>
    </contour>
    <contour>
      <point x="2937" y="0" type="line"/>
      <point x="2871" y="0"/>
      <point x="2635" y="0"/>
      <point x="2487" y="0" type="curve" smooth="yes"/>
      <point x="1410" y="0"/>
      <point x="2388" y="1569"/>
      <point x="1381" y="1569" type="curve" smooth="yes"/>
      <point x="807" y="1569" type="line"/>
      <point x="807" y="1581" type="line"/>
      <point x="1709" y="1581" type="line" smooth="yes"/>
      <point x="3093" y="1581"/>
      <point x="2269" y="13"/>
      <point x="2793" y="13" type="curve" smooth="yes"/>
      <point x="2879" y="13"/>
      <point x="2879" y="13"/>
      <point x="2937" y="13" type="curve"/>
    </contour>
  </outline>
</glyph>
<glyph name="fj.lig" format="2">
  <advance width="2367"/>
  <outline>
    <contour>
      <point x="56.5" y="12" type="line"/>
      <point x="1270" y="12" type="line"/>
      <point x="1270" y="0" type="line"/>
      <point x="56.5" y="0" type="line"/>
    </contour>
    <contour>
      <point x="2037.5" y="-50" type="line" smooth="yes"/>
      <point x="2037.5" y="-586"/>
      <point x="1825" y="-1064"/>
      <point x="1272.5" y="-1064" type="curve" smooth="yes"/>
      <point x="920" y="-1064"/>
      <point x="707" y="-857.5"/>
      <point x="707" y="-603" type="curve" smooth="yes"/>
      <point x="707" y="-414.5"/>
      <point x="837.5" y="-302.5"/>
      <point x="990.5" y="-302.5" type="curve" smooth="yes"/>
      <point x="1123.5" y="-302.5"/>
      <point x="1271.5" y="-381"/>
      <point x="1271.5" y="-565.5" type="curve" smooth="yes"/>
      <point x="1271.5" y="-750"/>
      <point x="1134" y="-836.5"/>
      <point x="972.5" y="-836.5" type="curve" smooth="yes"/>
      <point x="849.5" y="-836.5"/>
      <point x="748" y="-743"/>
      <point x="726.5" y="-647.5" type="curve"/>
      <point x="745.5" y="-872.5"/>
      <point x="951" y="-1047"/>
      <point x="1240.5" y="-1047" type="curve" smooth="yes"/>
      <point x="1639.5" y="-1047"/>
      <point x="1567" y="-438"/>
      <point x="1567" y="82" type="curve" smooth="yes"/>
      <point x="1567" y="1872" type="line"/>
      <point x="56.5" y="1872" type="line"/>
      <point x="56.5" y="1884" type="line"/>
      <point x="2037.5" y="1884" type="line"/>
    </contour>
    <contour>
      <point x="2018" y="2727.5" type="curve"/>
      <point x="1990.5" y="2902.5"/>
      <point x="1830" y="3099"/>
      <point x="1425.5" y="3099" type="curve" smooth="yes"/>
      <point x="1005.5" y="3099"/>
      <point x="885" y="2732"/>
      <point x="885" y="2212" type="curve" smooth="yes"/>
      <point x="885" y="0" type="line"/>
      <point x="425" y="0" type="line"/>
      <point x="425" y="2098" type="line" smooth="yes"/>
      <point x="425" y="2665"/>
      <point x="760" y="3112"/>
      <point x="1425.5" y="3112" type="curve" smooth="yes"/>
      <point x="1849.5" y="3112"/>
      <point x="2052.5" y="2889.5"/>
      <point x="2052.5" y="2645.5" type="curve" smooth="yes"/>
      <point x="2052.5" y="2457"/>
      <point x="1932.5" y="2350.5"/>
      <point x="1779.5" y="2350.5" type="curve" smooth="yes"/>
      <point x="1646.5" y="2350.5"/>
      <point x="1498.5" y="2429"/>
      <point x="1498.5" y="2613.5" type="curve" smooth="yes"/>
      <point x="1498.5" y="2798"/>
      <point x="1642" y="2885.5"/>
      <point x="1780" y="2885.5" type="curve" smooth="yes"/>
      <point x="1907.5" y="2885.5"/>
      <point x="1985.5" y="2805.5"/>
    </contour>
  </outline>
</glyph>
<glyph name="four.alt" format="2">
  <advance width="655"/>
  <outline>
    <contour>
      <point x="590" y="3" type="line"/>
      <point x="590" y="0" type="line"/>
      <point x="265" y="0" type="line"/>
      <point x="265" y="3" type="line"/>
    </contour>
    <contour>
      <point x="515" y="498" type="curve"/>
      <point x="515" y="-1" type="line"/>
      <point x="360" y="-1" type="line"/>
      <point x="360" y="453" type="line"/>
      <point x="405" y="453"/>
      <point x="485" y="478"/>
    </contour>
    <contour>
      <point x="20" y="192" type="curve"/>
      <point x="605" y="192" type="line"/>
      <point x="605" y="190" type="line"/>
      <point x="15" y="190" type="line"/>
      <point x="155" y="390"/>
      <point x="310" y="600"/>
      <point x="330" y="750" type="curve"/>
      <point x="498" y="750" type="line"/>
      <point x="479" y="580"/>
      <point x="161" y="386"/>
    </contour>
  </outline>
</glyph>
